<?xml version="1.0" encoding="utf-8"?>
<!-- Generator: Adobe Illustrator 27.2.0, SVG Export Plug-In . SVG Version: 6.00 Build 0)  -->
<svg version="1.1" id="Layer_1" xmlns="http://www.w3.org/2000/svg" xmlns:xlink="http://www.w3.org/1999/xlink" x="0px" y="0px"
	 viewBox="0 0 9000 9000" style="enable-background:new 0 0 9000 9000;" xml:space="preserve">
<style type="text/css">
	.st0{fill:#FFFFFF;}
</style>
<path d="M8914.67,4652.56c-1.91,15.83-4.75,31.62-5.51,47.51c-1.3,27.24-1.65,54.54-1.77,81.81c-0.33,75.79-9,150.99-17.24,226.11
	c-11.9,108.41-28.43,216.19-48.5,323.46c-58.09,310.58-148.97,611.2-272,902.13c-44.91,106.2-94.23,210.33-147.65,312.51
	c-5.59,10.69-12.05,20.91-19.31,33.41c-9.33-5.55-16.36-9.73-25.17-14.96c18.71-44.5,42.95-84.7,62.65-127.06
	c20.38-43.82,41.78-87.16,61.66-131.2c19.37-42.91,37.91-86.21,55.81-129.75c17.91-43.54,35.2-87.35,51.63-131.46
	c16.87-45.27,32.95-90.85,48.3-136.66c14.96-44.63,29.1-89.55,42.61-134.64c13.5-45.09,26.3-90.41,38.41-135.89
	c12.11-45.49,23.64-91.15,34.21-137.02c10.86-47.07,20.88-94.36,30.11-141.79c9-46.21,17.06-92.61,24.58-139.09
	c7.52-46.48,14.52-93.06,20.51-139.75c6.15-47.93,11.25-96.02,15.98-144.12c4.61-46.88,8.88-93.81,12-140.8
	c3.12-47.01,5.29-94.1,6.65-141.19c1.4-48.33,1.92-96.71,1.71-145.06c-0.2-47.11-1.24-94.23-2.97-141.31
	c-1.73-47.08-4.18-94.15-7.4-141.14c-3.22-46.99-7.17-93.95-11.92-140.81c-4.88-48.09-10.51-96.11-16.93-144.02
	c-6.26-46.67-13.26-93.26-21.19-139.67c-7.92-46.4-16.89-92.64-26.32-138.77c-9.68-47.33-19.89-94.58-30.95-141.6
	c-10.77-45.82-22.3-91.48-34.62-136.91c-12.33-45.43-25.49-90.64-39.32-135.64c-14.2-46.18-29.1-92.15-44.71-137.87
	c-15.21-44.55-31.1-88.89-47.8-132.9c-16.7-44.01-34.22-87.74-52.41-131.15c-18.2-43.42-37.15-86.54-56.77-129.34
	c-20.13-43.93-40.97-87.55-62.42-130.85c-20.85-42.1-42.86-83.62-65.55-127.71c8.45-5.5,16.16-10.51,25.88-16.84
	c7.31,12.56,13.78,22.87,19.48,33.59c167.05,314.53,292.86,644.89,379.1,990.39c37.54,150.41,67.38,302.41,87.87,456.04
	c12.28,92.11,21.38,184.69,29.48,277.28c4.09,46.85,2.37,94.18,4.12,141.26c0.63,17.04,3.71,33.99,5.68,50.98
	C8914.67,4478.91,8914.67,4565.74,8914.67,4652.56z"/>
<path d="M6566.04,3913.39c19.33-0.28,34.75-8.17,49.54-17.05c42.48-25.49,85.17-50.55,124.8-80.65
	c25.57-19.41,53.11-36.35,80.6-53.04c10.47-6.36,17.03-13.41,19.03-25.42c2.03-12.21,5.18-24.23,7.46-36.41
	c18.62-99.71,65.02-186.65,123.55-267.86c18.94-26.28,41.51-49.24,68.2-67.97c32.78-23,68.9-32.83,108.84-29.27
	c40.15,3.58,70.67,22.36,89.27,58.06c7.92,15.21,13.67,31.93,17.92,48.6c10.5,41.12,12.59,83.4,11.85,125.55
	c-0.69,38.99-11.28,76.29-30.83,109.98c-16.12,27.78-33.27,55.46-53.62,80.18c-25.93,31.5-55.16,60.33-83.69,89.6
	c-17.31,17.76-36.2,33.7-58.82,44.95c-23.88,11.88-37.39,31.78-40.75,58.42c-1.24,9.83-2.63,19.65-4,29.47
	c-4.47,31.88-9.02,63.76-13.41,95.65c-1.81,13.16-5.59,26.6,1.63,37.58c8.95,4.78,14.73,1.4,18.78-3.01
	c12.53-13.62,25.67-27,36.11-42.16c14.73-21.4,27.45-44.21,40.68-66.63c17.13-29,37.45-55.12,62.22-78.27
	c28.97-27.07,55.32-56.94,84.3-83.99c22.57-21.07,46.25-41.37,71.52-59.03c38.74-27.08,82.77-37.73,130.24-35.73
	c39.74,1.67,72.41,16.9,96.16,48.42c25.33,33.63,48.64,68.63,58.13,110.89c3.67,16.33,12.05,22.6,29.63,21.53
	c14.69-0.9,29.51-3.45,43.75-7.23c35.24-9.36,65.89-28.25,95.4-48.97c20.19-14.18,40.03-28.9,58.57-48.41
	c-4.5-11.98-8.55-23.46-13.09-34.73c-20.43-50.74-37.36-102.54-44.73-156.92c-6.03-44.5-6.61-89.06,4.76-132.99
	c17.01-65.72,60.39-103.87,127.08-113.7c85.29-12.57,138.1,53,145.45,111.29c5.02,39.85,2.08,79.26-10.57,117.62
	c-6.6,20-13.65,39.86-20.58,59.75c-4.08,11.7-8.35,23.33-12.47,35.02c-7.32,20.76-6.76,40.23,3.3,60.94
	c21.11,43.45,39.66,88.14,59.77,132.09c26.3,57.48,52.68,114.93,79.85,172c13.36,28.06,24.37,56.83,33.39,86.53
	c7.14,23.49,13.71,47.41,29.34,70.47c5.32-5.08,10.12-8.54,13.5-13.08c35.59-47.7,70.07-96.25,106.67-143.16
	c27.41-35.14,57.68-68.02,86.22-102.29c13.46-16.16,26.37-32.83,38.58-49.94c21.59-30.27,41.41-61.87,63.98-91.37
	c15.72-20.56,34.07-39.29,52.62-57.43c12.32-12.04,27.16-21.41,46.95-21.29c10.63,18.66,4.42,36.7-1.64,53.58
	c-4.95,13.81-12.46,27.2-21.2,39.03c-14.7,19.89-29.94,39.74-47.34,57.22c-44.86,45.06-83.25,95.12-118.42,147.8
	c-24.78,37.12-48.86,74.7-73.29,112.06c-38.04,58.18-77.97,114.92-125.76,165.7c-2.47,2.62-4.03,6.09-7.69,11.76
	c4.55,12.32,9.31,26.2,14.74,39.8c31.28,78.24,63.81,156.01,88.61,236.68c27.49,89.41,43.71,180.17,41.79,274.42
	c-1.57,77.25-30.45,142-78.45,199.98c-6.21,7.51-14.2,13.92-22.34,19.39c-37.18,25-76.67,45.65-119.26,59.81
	c-62.2,20.68-119.87,7.78-173.74-26.1c-22.55-14.18-38.33-35.09-47.97-60.11c-4.01-10.4-8.9-19.74-15.61-29.01
	c-28.5-39.32-43.74-82.14-35.74-132.37c10.13-63.61,15.45-128,26.21-191.48c15.8-93.26,43.48-183.13,85.47-268.3
	c12.05-24.44,22.82-49.51,34.03-74.36c10.71-23.76,10.26-47.18,1.93-72.19c-46.23-138.85-97.71-275.64-156.44-409.68
	c-3.85-8.8-9-17.03-14.23-26.79c-8.4,4.1-15.16,6.91-21.45,10.55c-58,33.62-117.44,63.91-181.99,83.35
	c-24.77,7.46-32.04,18.5-29.81,44.19c1.71,19.72,5.11,39.34,8.75,58.82c6.16,33,10.69,66.09,8.95,99.76
	c-3.34,64.38-4.95,129-20.32,192.02c-5.85,24-13.52,47.67-22.14,70.83c-9.17,24.64-23.39,46.63-43.42,64.05
	c-10.61,9.23-18,19.92-23.07,33c-16.99,43.86-45.71,79.28-81.48,109.07c-48.51,40.39-103.33,68.28-165.87,78.98
	c-18.15,3.1-36.95,3.85-55.39,3.32c-22.21-0.63-44.37-3.6-66.52-5.85c-23.5-2.38-42.04-14.61-57.3-31.55
	c-39.65-43.99-50.8-95.34-36.39-152.25c7.68-30.31,21.88-57.94,39.04-83.94c9.55-14.47,19.31-28.93,30.34-42.26
	c17.38-21.03,33.44-42.85,48.81-65.43c13.16-19.33,29.19-36.99,45.63-53.73c32.13-32.73,65.59-64.13,98.16-96.42
	c17.6-17.44,35.12-35.04,51.65-53.49c49.92-55.71,71.8-120.49,62.15-195.42c-4.92-38.21-11.49-76.06-24.13-112.47
	c-12.84-36.98-24.99-42.57-61.67-27.1c-16.92,7.14-33.62,16.58-47.72,28.25c-22.84,18.89-45.42,38.8-64.57,61.29
	c-30.49,35.81-59.63,73.01-86.49,111.61c-34.68,49.83-67.27,101.17-99.46,152.67c-37.8,60.46-61.22,127.08-79.58,195.59
	c-20.25,75.54-33.76,152.42-44.73,229.76c-21.77,153.38-42.75,306.88-64.95,460.19c-9.05,62.52-20.24,124.73-30.98,186.99
	c-2.09,12.13-6.16,23.99-10.1,35.72c-4.22,12.56-12.94,21.88-26.05,24.12c-19.42,3.32-39.11,6.12-58.76,6.76
	c-21.66,0.71-37.41-11.19-48.49-29.3c-10.02-16.38-13.69-34.54-13.26-53.44c1.47-64.47,1.45-129.04,5.39-193.36
	c4.54-74.21,11.29-148.36,19.63-222.25c9.31-82.5,20.12-164.88,32.7-246.95c27.03-176.4,56.09-352.49,83.26-528.87
	c7.54-48.97,11.48-98.49,16.82-147.79c0.78-7.18,0.11-14.51,0.11-21.41c-4.24-0.8-7.16-2.38-8.82-1.52
	c-26.29,13.61-54.65,23.2-78.72,41.12c-36.84,27.44-74.92,53.11-116.54,72.7c-27.89,13.13-40.69,34.9-42.74,64.41
	c-0.6,8.65-1.09,17.37-0.76,26.02c0.63,16.66-2.36,31.57-13.8,44.85c-11.06,12.85-12.04,29.82-13.06,45.78
	c-1.29,20.27-7.41,38.3-16.48,56.4c-7.64,15.26-12.56,32.34-15.93,49.17c-5.65,28.25-14.55,55.07-28.18,80.34
	c-35.55,65.89-84.87,118.69-149.56,156.72c-49.61,29.16-102.95,41.27-160.46,35.83c-62.82-5.93-109.54-36.24-140.55-90.88
	c-7.29-12.84-13.29-26.42-19.67-39.23c-9.3-1.89-10.55,5.13-13.51,9.91c-0.64,1.03-0.86,2.32-1.24,3.5
	c-18.43,58.19-48.07,111.34-74.74,165.79c-40.18,82.04-93.08,155.04-158.52,218.8c-33,32.16-69.03,60.43-110.23,81.52
	c-34.58,17.7-70.68,29.4-110.16,29.71c-33.98,0.27-63.79-10.57-88.19-33.29c-15.25-14.2-29.49-30.5-40.37-48.21
	c-31.01-50.5-48.61-105.7-49.7-165.4c-0.47-26.03-0.07-52.1,0.88-78.12c1.4-38.4,3.1-76.64-0.02-115.17
	c-1.67-20.63,0.99-42.28,5.52-62.62c21.07-94.5,33.49-190.38,47.35-286.02c13.69-94.45,25.82-189.12,39.7-283.54
	c9.22-62.71,28.83-122.96,46.67-183.59c26.94-91.53,53.9-183.05,80.29-274.74c6.5-22.59,10.96-45.78,16.13-68.74
	c3.01-13.33,4.69-26.76,1.27-38.81c-11.5-13.87-27.16-15.41-40.92-19.93c-137.72-45.18-276.46-86.99-417.06-122.35
	c-25.18-6.33-50.47-13.08-76.13-16.4c-43.43-5.61-83.53,5.73-119.59,30.61c-18.73,12.93-32.86,30.04-43.35,50.16
	c-4.54,8.7-8.78,17.56-12.98,26c-16.71,1.75-26.84-7.76-36.46-17.27c-8.28-8.19-10.47-19.18-11.57-30.63
	c-3.5-36.24,9.4-65.81,36.35-89.27c31.73-27.63,68.89-43.7,110.71-48.21c37.23-4.02,74.33-0.51,111.15,4.81
	c87.41,12.64,171.47,38.51,255.06,66.02c10.58,3.48,21.11,7.17,31.53,11.12c68.54,26.01,139.29,43.3,211.1,57.85
	c55.72,11.29,110.52,27.36,165.31,42.82c27.67,7.81,55.1,13.09,84,13.16c18.33,0.04,37.54,2,54.78,7.8
	c43.03,14.48,87.26,17.47,131.9,18.91c26.01,0.84,52.1,0.28,78.02,2.21c36.03,2.68,71.55,1.26,107.45-3.44
	c35.36-4.63,71.27-5.56,106.98-7.01c30.18-1.22,36.61,6.21,38.13,42.41c-26.25,10.88-51.67,26.16-80.14,34.31
	c-12.91,3.7-26.59,5.58-40.04,6.37c-71.75,4.18-143.53,7.65-215.29,11.61c-19.89,1.1-38.99,0.41-58.56-5.91
	c-48.58-15.7-99.24-21.11-149.87-25.53c-16.33-1.43-20.68,2.71-25.88,19.94c-54.5,180.54-97.6,363.75-128.69,549.79
	c-16.55,98.99-32.57,198.09-51.05,296.73c-14.14,75.49-32,150.27-47.74,225.47c-16.79,80.23-29.13,160.97-27.41,243.37
	c0.77,37.15-1.21,74.37,0.25,111.48c0.67,17.04,4.68,34.57,10.53,50.66c14.37,39.5,41.57,49.53,79.39,29.34
	c15.12-8.07,29.72-18.4,41.91-30.39c20.26-19.94,39.71-41.03,57.14-63.47c52.68-67.82,97.31-140.98,131.85-219.49
	c39.42-89.58,75.18-180.77,112.83-271.13c6.35-15.24,8.42-30.7,8.38-47.09c-0.08-25.99,4.02-52.24,1.55-77.91
	c-6.1-63.31,10.11-122.91,27.73-182.03c19.93-66.87,50.88-129.05,89.5-187.25c25.5-38.43,54.67-73.7,90.96-102.54
	c34.6-27.48,72.68-47.7,117.55-51c17.12-1.26,34.73-0.93,51.68,1.61c59.75,8.97,110.39,36.33,150.77,81.14
	c33.97,37.7,48.84,81.88,43.95,133.48c-2.55,26.89,0.64,54.36,1.74,81.54C6561.56,3904.15,6564.35,3908.59,6566.04,3913.39z
	 M6176.94,4338.55c-4.34,22.55,0.96,46.84,7.17,70.8c2.74,10.57,7.25,21.1,13.05,30.34c6.4,10.19,17.18,15.14,29.05,10.2
	c48.41-20.12,94.02-44.62,126.31-87.89c22.32-29.92,39.63-62.85,54.22-97.04c21.37-50.06,42.02-100.44,61.98-151.09
	c5.84-14.83,9.3-30.83,12.05-46.61c4.74-27.18-3.89-37.04-30.8-37.47c-3.7-0.06-7.42,0.27-11.12,0.54
	c-33.33,2.37-66.63,5.42-100,6.89c-19.65,0.86-39.52,0.31-59.1-1.6c-20.88-2.04-41.43-7.3-62.29-9.58
	c-32.79-3.58-41.76,3.61-48.37,35.98c-0.74,3.63-0.93,7.37-1.57,11.03c-6.66,38.18-4.84,76.51-2.01,114.84
	C6169.16,4237.26,6172.99,4286.63,6176.94,4338.55z M8072.63,4498.56c-15.03,11.71-17.97,23.91-21.76,35.56
	c-13.81,42.41-27.94,84.72-41.18,127.31c-16.95,54.5-30.55,109.77-37.32,166.62c-9.93,83.36,10.81,159.79,51.9,231.53
	c6.08,10.61,14.25,20.51,23.21,28.83c8.92,8.28,19.45,15.39,30.36,20.84c22.23,11.1,43.04,7.9,61.6-9.32
	c17.55-16.29,30.29-35.91,41.02-57.03c5.6-11.03,9.43-23.44,16.99-32.87c9.65-12.03,10.63-23.16,7.45-37.75
	c-14.49-66.58-27.09-133.58-41.58-200.16c-17.67-81.22-39.16-161.38-72.98-237.67C8085.41,4523.34,8079.6,4512.63,8072.63,4498.56z
	 M7393.89,4173.77c-15.79-1.65-26.85,7.02-38.24,13.84c-37.71,22.59-67.71,53.65-94.25,88.17
	c-50.95,66.28-88.19,140.06-116.44,218.38c-12.24,33.93-15,69.98-17.54,105.8c-1.49,21.06,8.74,35.71,26.6,44.93
	c22.48,11.6,45.15,11.38,67.02-2.26c19.15-11.95,34.56-27.92,48.16-45.72c23.43-30.67,41.02-64.63,55.92-100.08
	c37.62-89.54,60.02-183.01,71.14-279.29C7397.91,4203.25,7400.15,4188.45,7393.89,4173.77z M7005.72,3847.85
	c7.71-2.51,15.1-3.75,21.3-7.16c24.22-13.34,43.55-32.53,60.67-53.9c43.8-54.67,75.46-115.81,97.22-182.35
	c17.27-52.8,6.77-102.5-15.03-151.17c-2.5-5.57-6.09-10.82-9.97-15.58c-17.38-21.29-40.75-24.46-61.68-6.3
	c-10.96,9.51-21.05,21.54-27.48,34.46c-11.51,23.15-21.72,47.28-29.35,71.96c-24.2,78.29-34.69,159.41-46.21,240.21
	C6991.88,3801.26,6993.36,3824.84,7005.72,3847.85z M6359.56,3983.45c29.61-2.12,61.76-4.57,92.5-14.99
	c20.87-7.07,25.36-14.76,23.17-36.12c-0.75-7.35-2.44-14.64-4.15-21.86c-6.57-27.69-13.5-55.29-19.88-83.02
	c-1.92-8.36-5.02-17.59-3.26-25.46c7.3-32.7-9.55-57.15-25.92-81.78c-9.52-14.33-23.85-17.21-39.38-11.8
	c-9.25,3.22-18.96,7.04-26.39,13.13c-15.23,12.49-30.49,25.47-43.2,40.4c-33.14,38.94-57.02,83.7-78.15,130.09
	c-8.31,18.24-10.56,33.22,12.76,52.23C6279.23,3970.01,6315.48,3984.63,6359.56,3983.45z M7952.21,3682.83
	c31.46-44.23,48.94-86.82,47.49-135.63c-0.74-25.11-8.71-48.74-22.85-69.69c-16.01-23.72-43.83-24.95-62.19-2.9
	c-4.65,5.59-8.79,12.26-11.01,19.13c-9.34,28.86-12.78,57.78,0.5,86.81c12.35,26.98,23.71,54.42,35.78,81.54
	C7942.37,3667.58,7946.04,3672.52,7952.21,3682.83z"/>
<path d="M3067.58,4001.16c-7.28,2.03-12.37,2.47-16.43,4.74c-42.14,23.63-84.5,46.92-125.95,71.72
	c-16.88,10.1-32.16,23.11-47.27,35.85c-11.67,9.84-17.66,22.96-19.67,38.72c-10.96,86.06-23.26,171.94-33.71,258.06
	c-3.27,26.98-3.63,54.52-2.87,81.74c2.68,96.36-12.76,190.14-37.24,282.88c-16.13,61.08-31.58,122.35-47,183.61
	c-11.12,44.18-31.67,83.42-61.8,117.3c-73.32,82.44-165.24,131.67-275.02,138.81c-161,10.47-279.39-95.14-291.28-252.42
	c-7.23-95.72,16.48-184.64,60.55-268.39c35.48-67.42,83.34-126.19,137.09-179.81c35.95-35.87,73.34-70.4,111.37-104.08
	c59.38-52.59,119.36-104.53,180.08-155.57c29.12-24.48,46-53.76,50.64-91.65c7.08-57.77,16.28-115.28,24.01-172.98
	c1.63-12.19,1.37-24.73,0.81-37.06c-0.19-4.14-4.04-8.12-6.31-12.35c-14.47,5.49-18.78,18-25.86,27.7
	c-31.49,43.11-64.1,85.32-102.88,122.18c-18.82,17.89-38.7,34.85-59.3,50.66c-67.4,51.73-142.71,65.99-224.75,44.87
	c-16.76-4.32-33.22-9.82-49.77-14.93c-8.12-2.51-16.13-5.38-26.42-8.84c-6.12,11.66-12.35,22.15-17.32,33.21
	c-30.49,67.81-59.84,136.16-91.3,203.52c-23.05,49.36-47.39,98.24-73.6,145.98c-30.59,55.72-69.8,105.34-115.72,149.45
	c-8.04,7.72-16.44,15.07-24.77,22.49c-28.35,25.25-61.09,25.01-94.45,14.34c-20.19-6.45-31.6-22.8-38.13-42.77
	c-4.01-12.26-3.47-27.52-20.87-31.79c-3.08-0.76-5.88-7.74-6.55-12.2c-1.48-9.77-1.64-19.75-2.13-29.65
	c-4.61-93.85,9.64-185.43,33.78-275.72c14.08-52.65,30.4-104.72,43.45-157.61c11.61-47.04,24.43-93.38,44.36-137.72
	c7.56-16.82,12.58-34.98,16.98-52.97c3.55-14.5,3.54-29.54-3.93-43.52c-4.41-8.24-13.43-12.55-21.82-8.6
	c-7.72,3.64-15.54,8.02-21.73,13.78c-11.76,10.95-23.11,22.52-33.36,34.88c-32.54,39.22-60.77,81.45-84.93,126.34
	c-5.86,10.89-12.15,21.93-15.54,33.68c-9.63,33.34-29.53,59.69-53.41,83.68c-11.37,11.42-23.25,22.37-34.15,34.22
	c-8.35,9.07-17.24,18.31-22.93,29.04c-28.79,54.38-76.54,79.41-134.66,87.43c-30.71,4.24-61.67,3.92-92.23-4.39
	c-38.41-10.45-65.54-33.51-82.41-69.31c-10.69-22.68-16.84-46.73-19.9-71.34c-11.41-91.74-9.84-183.06,10.65-273.63
	c3.23-14.28,5.5-28.77,8.09-42.52c-4.16-1.92-6.81-4.24-8.2-3.64c-54.33,23.61-159.93,84.46-183.95,106.11
	c4.83,29.64,15.48,58.68,23.78,88.33c12.68,45.31,25.92,90.49,37.27,136.14c9.6,38.59,13.41,78.08,13.07,117.98
	c-0.42,49.6,0.58,99.23-0.24,148.82c-2.29,139.83-36.23,272.08-96.95,397.71c-49.92,103.27-136.88,149.1-246.95,157.77
	c-33.41,2.63-66.78,0.23-99.62-8.17c-63.76-16.32-115.33-50.65-154.04-103.73c-35.86-49.17-56.06-104.76-62.45-165.04
	c-9.65-91.13,6.84-177.77,47.68-259.75c22.21-44.59,50.39-85.25,80.8-124.59c43.21-55.88,86.15-111.99,128.19-168.76
	c37.65-50.84,74.81-101.93,120.48-146.18c11.48-11.12,21-24.39,30.6-37.28c8.67-11.65,10.4-24.41,4.71-38.59
	c-10.61-26.44-19.65-53.51-30.36-79.91c-34.46-84.98-70.08-169.49-103.9-254.73c-27.9-70.32-51.49-142.14-66.34-216.55
	c-13.47-67.51-17.04-135.22-3.46-203.16c6.6-33.04,17.31-64.61,35.49-93.29c32.32-50.97,78.56-77.62,138.92-79.52
	c36.15-1.14,71.69,2.24,106.43,13.2c70.45,22.23,115.58,68.85,137.67,139.22c13.18,41.99,11.96,82.77-3.29,123.83
	c-10.01,26.96-23.23,52.07-39.89,75.34c-34.41,48.06-77.1,87.11-128.49,116.48c-10.66,6.09-21.37,12.09-32.18,18.21
	c-4.06,14.52-1.54,27.93,2.69,40.84c9.26,28.24,18.11,56.7,29.3,84.19c13.07,32.11,27.65,63.67,43.02,94.76
	c17.57,35.55,36.02,70.38,44.29,109.89c3.43,16.4,9.43,33.31,23.47,46.72c4.9-2.39,9.56-3.86,13.27-6.61
	c56.92-42.23,119.13-75.77,180.35-111c60.14-34.61,43.81-15.61,63.54-82.52c5.95-20.2,12.26-40.5,15.59-61.21
	c7.64-47.5,31.77-88.27,50.75-131.18c11.76-26.58,33.36-34.63,60.55-33.15c23.55,1.28,38.85,14.92,50.4,33.54
	c19.34,31.18,30.3,65.79,31.45,102.01c1.3,40.77,0.42,81.9-3.58,122.47c-6.33,64.22-21.45,126.97-38.6,189.18
	c-13.86,50.27-25.07,101.2-26.79,153.5c-0.93,28.4-0.01,57.01,2.45,85.32c1.26,14.45,6.05,29.25,12.26,42.47
	c11.05,23.55,30.22,28.18,51.98,13.13c11.09-7.67,21.59-16.96,30.21-27.31c19.02-22.83,38.33-45.71,54.57-70.51
	c40.73-62.21,80.43-125.11,119.33-188.49c25.98-42.34,52.34-83.83,87.14-120.03c18.62-19.36,31.47-44.29,46.84-66.77
	c12.57-18.39,23.86-37.8,37.79-55.09c19.93-24.73,46.84-35.11,78.85-33.75c25.06,1.07,42.05,12.97,52.68,34.81
	c11.18,22.97,12.66,47.69,11.59,72.67c-2.14,49.73-10.34,98.56-22.26,146.81c-11.89,48.11-26.49,95.73-35.26,144.4
	c-12.35,68.54-31.67,134.8-52.86,200.94c-26.76,83.53-33.3,170-29.25,257.34c0.27,5.9,2.71,11.7,3.85,16.37
	c11.05,5.59,19.35,1.68,25.19-4.69c9.96-10.88,20.25-22.16,27.1-35.03c13.94-26.2,26.97-53.06,38.04-80.58
	c19.88-49.42,38.47-99.37,56.79-149.4c20.05-54.76,41.79-108.71,69.42-160.17c7.6-14.15,13.86-29.02,21.18-44.49
	c-4.37-7.56-8.34-15.13-12.95-22.29c-25.26-39.27-33.05-81.93-27.25-128.05c6.1-48.46,19.66-94.53,40.14-138.68
	c45.09-97.19,109.27-179.73,191.48-248.23c28.67-23.89,59.67-44.32,93.64-60.05c40.54-18.77,82.32-26.14,126.5-15.08
	c30.12,7.54,59.71,16.25,87.29,30.98c22.09,11.8,37.06,28.38,40.28,54.23c2.29,18.38,5.43,36.65,8.13,54.54
	c-31.15,14.35-45.38,17.79-72,7.93c-29.19-10.8-53.19-4.02-76.32,13.49c-5.93,4.49-12.06,8.74-17.73,13.53
	c-87.36,73.91-156.6,161.86-205.11,265.78c-16.89,36.19-28.7,73.96-32.59,113.84c-1.07,10.97-1.22,22.42,0.68,33.22
	c5.63,31.99,24.1,44.77,55.55,38.48c12.01-2.4,24.11-6.29,35.04-11.75c17.69-8.83,35.18-18.46,51.48-29.61
	c81.49-55.76,152.68-122.75,211.27-202.22c20.45-27.74,36.49-58.9,52.95-89.36c16.49-30.5,29.8-62.75,46.77-92.96
	c12.67-22.56,28.08-43.75,43.88-64.32c11.38-14.81,26.78-25.47,44.54-32.53c22.5-8.95,43.66-6.87,63.87,6.02
	c24.72,15.76,43.63,36.9,54.51,64.09c3.99,9.97,5.86,21.82,4.98,32.52c-2.72,33.31-6.7,66.54-11.18,99.67
	c-4.98,36.84-11.72,73.45-16.36,110.32c-2.47,19.62-2.88,39.59-2.68,59.39c0.1,9.62,2.55,19.68,6.09,28.69
	c4.41,11.23,14.08,18.06,26.34,16.83c12.13-1.22,24.97-2.89,35.8-7.98c22.34-10.51,43.8-22.99,65.12-35.51
	c12.79-7.51,24.52-16.82,36.95-24.99c26.39-17.34,46.52-38.15,57.69-69.71c14.6-41.24,40.72-75.93,74.44-105.07
	c27.16-23.48,52.79-48.77,82.2-69.53c47.29-33.38,98.63-57.27,157.08-61.86c17.1-1.34,34.78-0.2,51.75,2.53
	c43.12,6.94,65.71,36.16,77.51,75.76c0.67,2.25,0.39,4.99-0.17,7.33c-0.55,2.29-2.01,4.36-3.07,6.54c-2.22,0.52-4.94,2.13-6.57,1.38
	c-47.02-21.88-90.27-8.57-130.09,17.16c-21.53,13.91-40.81,32.47-58.01,51.71c-41.42,46.33-75.3,98.37-108.07,151.03
	c-18.8,30.21-27.4,64.03-28.75,98.98c-1.78,45.81-0.85,91.73-0.83,137.61c0.01,28.64,15.92,45.66,41.4,55.49
	c36.56,14.1,64.87,6.93,89.03-23.39c20.09-25.21,39.38-51.05,59.59-76.17c41.33-51.38,76.36-106.66,107.31-164.91
	c37.22-70.04,75.75-139.42,115.35-208.13c22.88-39.69,48.66-77.74,73.92-116c5.97-9.04,14.22-17.19,22.98-23.63
	c11.74-8.63,25.22-11.49,37.07,0.51c7.69,7.78,17.2,8.88,27.09,10.23c29.91,4.1,46.43,22.57,50.7,51.3
	c2.71,18.24,4.86,37.3,2.63,55.41c-9.15,74.1-10.35,148.32-8.25,222.8c1.05,37.22-1.37,74.31-8.7,111.03
	c-9.49,47.54-12.19,95.82-14.81,144.13c-1.68,30.91-4.55,61.82-8.49,92.52c-4.48,34.88-17.28,67.03-36.25,96.72
	c-15.32,23.98-30.41,48.13-45.41,72.31c-6.06,9.77-15.39,13.87-25.37,10.53c-12.7-4.25-26.22-9.28-36.18-17.76
	c-14.92-12.71-27.71-28.15-40.19-43.43c-15.66-19.16-19.37-40.42-15.62-65.92c11.71-79.67,20.14-159.83,30.56-239.7
	c5.61-43,13.26-85.74,18.8-128.75c2.2-17.08,1.9-34.61,1.09-51.85c-0.24-5.03-5.14-11.53-9.73-14.27
	c-7.32-4.37-14.74-0.26-19.31,6.16c-7.15,10.05-14.18,20.37-19.74,31.34c-7.84,15.45-14.32,31.59-21.34,47.46
	c-35.58,80.35-88.29,149.08-146.29,213.99c-32,35.81-70.59,62.38-117.94,73.97c-38.74,9.49-77.7,14.12-117.75,6.96
	c-49.96-8.93-86.27-35.63-110.16-79.81c-19.23-35.58-27.77-74.22-29.65-114.22c-1.63-34.67-2.03-69.42,4.69-103.83
	C3068.53,4015.12,3067.58,4009.09,3067.58,4001.16z M2619.28,4313.21c-3.35,1.67-7.95,3.38-11.91,6.04
	c-58.19,38.97-107.67,86.67-150.26,142.58c-69.13,90.74-141.84,178.69-220.89,261.04c-23.32,24.29-38.3,51.92-44.69,83.99
	c-11.46,57.55-13.94,115.58-2.79,173.61c11.22,58.36,44.46,101.29,94.26,131.98c21.57,13.29,45.26,19.17,70.93,18.01
	c46.59-2.1,86.69-18.89,120.46-50.89c21.86-20.7,38.33-45.38,51.97-72.03c16.44-32.13,28.37-66.01,37.61-100.81
	c20.72-77.98,35.04-157.28,44.42-237.28c8.37-71.36,14.33-143.04,19.53-214.71c2.87-39.52,2.1-79.3,2.72-118.97
	C2630.76,4327.19,2630.88,4318.1,2619.28,4313.21z M901.35,4154.36c-11.99,9.4-19.36,13.78-24.98,19.81
	c-66.79,71.65-130.88,145.54-186.02,226.77c-37.66,55.48-70.74,113.52-96.35,175.6c-32.52,78.84-49.78,160.65-46.74,246.3
	c1.2,33.74,6.5,66.53,21.32,97.24c16.57,34.33,43.06,57.19,79.95,66.89c70.43,18.52,141.34-9.43,179.86-71.03
	c9.81-15.7,19.13-32.06,25.92-49.21c13.19-33.33,26.54-66.84,36.13-101.3c45.12-162.14,51.21-327.22,33.81-493.74
	c-2.96-28.31-7.01-56.53-11.56-84.62C911.19,4177.74,906.53,4168.93,901.35,4154.36z M866.04,3523.55
	c11.59-10.34,23.59-20.32,34.76-31.16c34.83-33.78,65.02-71.14,86.95-114.77c17.65-35.12,25.57-72.05,21.29-111.34
	c-2.3-21.12-7.63-41.25-18.82-59.59c-25.89-42.44-101.15-54.2-130.67,6.16c-6.45,13.18-11.7,27.58-14.12,41.98
	c-6.56,39.08-10.14,78.37-4.32,118.15c6.98,47.65,12.51,95.51,18.9,143.25C860.26,3518.13,862.79,3519.72,866.04,3523.55z"/>
<path d="M3564.54,1912.03c81.49-18.53,163.41-37.14,245.28-55.97c1.61-0.37,2.6-3.45,5.14-7.04c-11.74-4.73-23.1-9.08-34.29-13.84
	c-54.73-23.3-101.44-57.07-135.81-106.27c-7.74-11.08-14.32-23.26-19.54-35.73c-6.09-14.57,1.04-27.5,16.45-31.21
	c30.44-7.32,61.5-7.83,92.46-5.44c51.97,4.01,103.42,11.48,153.21,27.82c28.35,9.3,55.75,20.71,80.9,36.98
	c31.2,20.18,55.29,45.78,63.36,83.58c0.76,3.55,2.69,6.85,4.01,10.07c27.67,4.92,89.53,0.13,191.39-14.74
	c3.55-10.46-5.21-12.07-11.26-15.33c-34.39-18.51-64.17-42.28-85.26-75.67c-5.23-8.28-10.18-17.21-12.88-26.54
	c-5.04-17.46,4.2-30.78,21.97-30.16c45.77,1.6,91.86,0.31,136.92,10.68c21.86,5.03,42.38,13.57,61.5,25.55
	c33.86,21.23,64.4,46.24,89.88,77.2c6.27,7.62,12.68,15.13,20.69,24.68c12.53,0,26.06-0.29,39.58,0.05
	c85.49,2.15,171.08,2.52,256.45,7.07c219.72,11.7,435.88,46.95,648.01,105.47c79.96,22.06,159.25,46.66,238.39,71.55
	c46.14,14.52,90.32,34.29,132.26,58.7c31.21,18.16,60.35,39.06,85.49,65.17c6.01,6.24,11.97,12.62,17.24,19.48
	c7.85,10.22,8.71,20.17,3.27,27.27c-7.4,9.65-22.68,13.46-33.4,7.5c-5.29-2.94-10.42-6.85-14.35-11.43
	c-48.28-56.28-111.35-89.92-178.62-117c-68-27.37-138.72-45.74-209.87-62.63c-112.06-26.6-223.85-54.34-337.46-73.95
	c-94.07-16.24-188.52-28.5-283.72-36.22c-107.72-8.73-215.51-6.5-323.32-6.22c-8.51,0.02-17.02,1.36-27.76,2.27
	c1.98,7.23,2.72,13.29,5.21,18.49c10.35,21.59,5.41,41.54-7.39,59.59c-9.25,13.04-19.72,25.75-31.79,36.11
	c-18.75,16.11-38.49,31.39-59.29,44.7c-40.69,26.04-82.39,50.53-123.74,75.53c-4.21,2.55-8.78,4.77-13.46,6.22
	c-14.12,4.36-27.44-3.47-31.56-17.55c-5.18-17.75-11.58-35.17-15.97-53.1c-2.58-10.53-5.01-22.37-2.79-32.59
	c9.39-43.18,25.42-83.05,63.9-109.63c5.71-3.94,10.36-9.4,15.67-14.31c-3.39-3.07-5.1-5.92-6.64-5.83
	c-58.02,3.61-116.12,6.56-175.85,15.81c-0.96,8.54-2.71,16.78-2.66,25.02c0.14,26.25-2.35,52.01-11.5,76.82
	c-14.55,39.41-40.08,68.21-80.65,81.64c-19.96,6.61-40.3,12.13-60.63,17.53c-34.94,9.28-68.56,20.2-95.94,46.13
	c-15.57,14.75-39.94,5.77-41.89-14.97c-2.89-30.73-6.88-61.41-2.97-92.7c4.3-34.34,19.97-60.67,47.14-80.97
	c9.71-7.26,19.51-14.4,29.36-21.66c-2.59-2.9-4.22-5.97-5.34-5.8c-80.6,12.54-160.38,28.87-241.35,51
	c4.95,10.23,8.74,17.77,12.28,25.43c27.89,60.32,20.2,118.5-12.64,174.01c-15.03,25.4-40,39.96-67.02,50.81
	c-27.82,11.17-56.96,17.43-86.47,20.82c-17.97,2.07-33.3,7.94-47.82,18.18c-14.17,9.99-28.76,19.49-43.79,28.12
	c-28.56,16.41-48.91,4.22-47.51-29.22c1.3-31.07,7.22-61.46,19.43-90.42c17.13-40.65,42.69-75.33,73.72-106.25
	c12.09-12.04,24.29-23.96,36-35.5c-4.52-10.03-11.38-7.39-16.39-5.72c-56.41,18.73-112.61,38.1-169.05,56.75
	c-13.32,4.4-19.6,12.72-23.12,26.03c-12.85,48.46-41.85,86.54-79.19,118.85c-25.45,22.02-53.64,40.01-83.42,55.47
	c-41.94,21.77-86.05,38.11-131.48,50.89c-8.28,2.33-16.95,4.05-25.51,4.43c-14.86,0.67-26.24-10.43-25.41-25.53
	c0.74-13.55,3-27.1,5.7-40.43c6.63-32.74,12.5-65.73,21.23-97.93c12.39-45.72,42.39-77.33,84.4-98.59
	c42.95-21.74,89.12-29.51,136.26-33.27c18.5-1.48,37.3-2.73,55.72-1.16c48.11,4.08,88.46-19.23,130.98-35.02
	c1.46-0.54,1.75-4.24,2.38-5.92c-96.32-27.47-181.8-76.35-263.27-133.19c-5.07-3.54-9.98-7.41-14.43-11.69
	c-13.25-12.71-12.44-26.05,2.76-37.61c15.04-11.45,32.57-17.75,50.84-21.8c25.56-5.67,51.38-7.99,77.56-4.97
	c8.57,0.99,17.28,2.02,25.86,1.59c135.12-6.66,250.02,38.72,345.73,133.86C3557.65,1906.78,3560.69,1908.88,3564.54,1912.03z"/>
<path d="M5156.1,7497.3c17.01,8.06,27.93,13.35,38.94,18.43c51.69,23.81,95.33,57.57,127.76,104.77
	c7.67,11.17,14.76,23.08,19.93,35.56c9.13,22.05,0.37,37.52-23.37,38.69c-30.86,1.52-62.07,2.23-92.78-0.53
	c-58.21-5.23-115.19-17.68-168.61-42.17c-22.36-10.25-44.07-22.74-64.15-36.94c-27.09-19.15-45.81-45.03-50.73-79.15
	c-0.5-3.44-2.55-6.66-4.9-12.52c-63.81-1.5-127.36,9.84-190.74,9.15c-4.61,12.16,4.05,13.99,9.98,17.42
	c33.81,19.55,62.69,44.38,82.84,78.27c5.01,8.43,9.88,17.39,12.44,26.76c5.11,18.69-5.85,33.24-24.95,31.43
	c-43.11-4.07-86.25-8.67-128.99-15.45c-24.51-3.88-46.95-15.36-67.61-29.64c-34.92-24.15-66.85-51.61-90.71-87
	c-9.43-13.98-20.69-20.08-36.96-19.92c-14.85,0.14-29.72-1.04-44.58-1.42c-334.31-8.6-659.79-66.57-976.14-175.18
	c-52.68-18.08-105.08-37.05-157.1-56.95c-40.57-15.51-79-35.7-115.31-59.69c-29.08-19.22-55.81-41.24-78.57-67.79
	c-5.62-6.56-11.09-13.45-15.36-20.92c-5.82-10.17-0.09-23.61,11.17-27.17c12.57-3.97,24.49-3.29,34.1,7.3
	c1.66,1.83,3.32,3.68,4.86,5.61c40.45,50.62,93.38,84.53,150.86,112.11c60.48,29.02,123.85,50.33,188.31,68.43
	c126.34,35.49,252.47,71.78,381.05,98.69c111.63,23.36,223.84,42.94,337.72,50.51c84.03,5.58,168.21,8.77,252.34,12.76
	c12.2,0.58,24.47-0.34,38.96-0.6c-1.9-8.31-2.28-14.53-4.71-19.81c-9.4-20.42-4.85-39.37,7.38-56.09
	c10.14-13.87,21.78-27.27,35.04-38.08c19.13-15.6,39.57-29.96,60.81-42.54c41.55-24.61,84-47.71,126.22-71.18
	c5.32-2.96,11.35-5.23,17.32-6.3c12.58-2.25,26.61,6.54,27.3,18.89c1,17.82,7.69,33.58,12.83,50.1c3.21,10.32,5.47,22.49,3.18,32.71
	c-9.06,40.46-23.56,78.31-58.93,104.42c-8.37,6.18-20.03,9.88-23.1,21.83c2.29,1.95,4.04,4.72,5.69,4.66
	c50.73-1.88,101.46-3.91,152.17-6.29c7.17-0.34,14.26-2.6,23.36-4.35c0.98-9.23,2.22-17.46,2.67-25.74
	c1.47-27.39,5.61-54.03,16.79-79.51c15.87-36.17,41.58-61.51,79.26-73.22c22.41-6.97,45.55-11.63,68.42-17.08
	c32.71-7.79,64.07-17.49,90.56-40.35c19.45-16.78,42.7-5.65,44.02,20.21c1.26,24.73,1.04,49.6,0.08,74.35
	c-1.47,38.27-17.71,69.1-49.37,91.32c-8.97,6.3-17.91,12.65-27.38,19.34c14.8,8.02,14.87,8.39,34.01,5.13
	c56.14-9.56,112.29-19.13,168.3-29.45c12.95-2.39,26.74-3.55,39.66-11.89c-1.84-5.25-2.9-9.98-5.04-14.15
	c-27.73-53.93-22.61-107.84,0.78-161.3c13-29.72,36.17-49.89,65.35-63.2c29.62-13.51,61.05-20.95,93.29-23.07
	c24.31-1.6,45.75-8.42,65.77-22.23c14.23-9.81,29.43-18.5,45-26.02c20.08-9.71,37.44,1.33,38.58,23.91
	c1.33,26.36-4.3,51.72-12.64,76.58c-13.25,39.49-35.21,73.78-63.54,103.85c-15.26,16.2-32.35,30.66-48.5,46.02
	c-5.14,4.89-9.93,10.15-16.58,17c6.69,1.49,10.31,3.51,13.2,2.76c65.8-17.09,131.25-35.33,194.42-58.73
	c2.78-6.1,5.39-10.38,6.76-15.04c16.23-54.77,51.31-95.39,96.17-128.67c31.04-23.02,64.64-41.87,100.71-55.29
	c35.91-13.35,72.8-24.11,109.46-35.36c8.11-2.49,17.07-3.2,25.61-3.06c10.17,0.17,18.69,8.68,19.8,18.83
	c0.67,6.07,0.84,12.5-0.39,18.43c-7.76,37.58-14.49,75.46-24.39,112.49c-15.95,59.67-55.42,97.95-113.44,118.09
	c-33.07,11.48-67.03,17.89-101.82,19.18c-28.46,1.05-57.03,1.32-85.47,0.11c-19.01-0.81-36.8,1.87-54.56,8.23
	c-16.3,5.84-33.14,10.17-49.51,15.85c-6.66,2.31-12.69,6.44-20.89,10.73c92.51,29.14,171.44,77.39,247.23,131.43
	c11.06,7.89,21.63,16.68,31.37,26.14c10.18,9.88,10.02,24.63-1.67,32.22c-13.27,8.62-28.02,15.94-43.13,20.55
	c-27.51,8.4-56.01,9.19-84.69,5.96c-15.93-1.8-32.01-2.59-48.05-2.98c-125-3.06-230.78-49.88-317.94-139.3
	c-3.45-3.54-6.67-7.32-10.1-10.89c-0.82-0.85-2.03-1.32-5.21-3.32c-26.53,1.4-53.69,10.38-81.48,15.63
	c-29.2,5.51-58.47,10.64-87.63,16.34C5216.86,7484.3,5188.47,7485.18,5156.1,7497.3z"/>
<path d="M4865.15,3731.25c32.08,12.06,41.11,24.17,35.85,52.04c-4.12,21.83-9.17,43.9-17.26,64.5
	c-56.34,143.33-93,292.65-135.73,440.15c-23.78,82.08-47.15,164.37-74.62,245.24c-21.88,64.43-49.95,126.74-74.79,190.19
	c-23.02,58.82-45.48,117.86-68.04,176.86c-23.03,60.22-47.28,119.89-78.78,176.31c-20.01,35.83-42.52,69.85-71.59,99.18
	c-20.34,20.53-43.11,37.65-70.59,46.93c-46.64,15.75-90.48,7.07-131.56-18.29c-28.02-17.3-49.16-41.58-65.98-69.48
	c-33.26-55.18-51.42-115.12-54.39-179.55c-5.65-122.4,6.86-242.87,43.14-360.02c30.41-98.19,63.55-195.54,95.97-293.11
	c29.71-89.41,58.71-179.08,73.64-272.36c6.12-38.26,15.05-75.14,31.16-110.38c4.09-8.93,6.9-18.67,8.83-28.33
	c5.55-27.75-2.96-46.14-28.51-57.6c-14.54-6.52-30.43-10.29-45.97-14.26c-41.97-10.72-84.29-20.14-126.09-31.48
	c-44.32-12.03-87.06-28.53-127.37-50.88c-29.45-16.33-56.72-35.55-79.3-60.78c-28.21-31.52-45.24-67.69-45.89-110.8
	c-0.97-64.59,40.18-111.22,104.61-117.4c60.96-5.85,109.18,16.53,143.57,67.26c27.71,40.89,40.47,87.36,48.19,135.48
	c1.96,12.24,4.07,24.48,5.3,36.8c1.9,19.13,12.4,32.54,28.52,40.86c14.2,7.33,29.23,13.79,44.61,17.92
	c31.06,8.33,62.73,14.39,93.93,22.21c26.4,6.61,53.09,12.75,78.62,21.96c76.42,27.58,98.02,68.47,79.42,146.82
	c-2.29,9.63-4.71,19.28-7.91,28.64c-44.14,129.07-78.57,260.94-112.92,392.81c-20.95,80.43-44.06,159.99-76.7,236.6
	c-22.06,51.78-32.69,106.02-36.74,162.31c-3.1,43.13-12.03,85.83-18.21,128.75c-6.59,45.76-8.48,91.58,4.6,136.47
	c5.49,18.84,12.37,38.02,22.58,54.59c21.14,34.32,57.6,35.38,82.56,3.22c8.99-11.58,15.9-25.17,21.79-38.7
	c59.78-137.47,119.12-275.14,178.65-412.72c40.46-93.51,69.08-190.97,96.41-288.85c25.98-93.06,50.65-186.46,81.79-278.05
	c15.13-44.5,25.7-90.55,38.78-135.77c13.12-45.34,28.49-89.91,53.56-130.25c10.43-16.78,22.71-32.48,34.9-48.08
	C4852.36,3741.62,4859.47,3736.52,4865.15,3731.25z M4093,3677.96c0.59-4.99,2.14-9.88,1.54-14.48
	c-5.49-42.19-18.86-81.67-41.72-117.72c-3.29-5.19-7.13-10.09-11.08-14.81c-8.56-10.22-19.1-15.42-32.73-11.84
	c-11.74,3.09-17.78,11.8-19.7,28.14c-3.34,28.46,3.38,53.8,22.46,75.7c19.73,22.66,43.39,40.25,69.41,54.8
	C4083.88,3679.27,4088.14,3677.96,4093,3677.96z"/>
<path d="M655.45,6564.18c-10.28,5.95-16.52,9.57-22.18,12.85c-3.28-1.37-6.49-1.66-7.57-3.33c-6.02-9.32-11.96-18.74-17.14-28.54
	c-190.07-359.23-327.36-737.6-411.94-1135.21c-31.23-146.8-55.37-294.72-71.2-443.89c-22.14-208.6-31.17-417.81-22.52-627.57
	c27.07-656.39,188.81-1277.19,491.66-1860.63c5.63-10.85,12.04-21.31,19.4-34.26c9.32,4.99,17.27,9.24,27.42,14.67
	c-339.64,644.72-510.56,1329.81-507.94,2055.87C136.04,5238.96,311.37,5921.68,655.45,6564.18z"/>
<path class="st0" d="M6690.49,8303.46c-0.98,0.91-1.91,1.87-2.8,2.86c-12.11,0-20.58,6.37-27.37,15.66c0,0,1.52-1.05,1.51-1.05
	c-5.49,2.82-10.98,5.64-16.47,8.46c0,0,1.66-0.99,1.66-0.99c-8.6,1.04-17.21,1.97-25.8,3.13c-45.1,6.07-82.9-10.35-115.78-39.28
	c-46.94-41.31-76.2-93.58-92.39-153.71c-5.56-20.66-7.32-41.46-6.01-62.58c1.92-30.87,13.38-57.61,35.85-79.3
	c6.14-5.92,12.05-12.08,18.06-18.12c0,0-1.49,1.05-1.49,1.05c5.49-2.82,10.98-5.64,16.47-8.46c0,0-1.64,1-1.64,1
	c9.83-1.04,19.66-2.01,29.48-3.14c30.65-3.52,59.47,2.7,85.06,19.45c16.42,10.75,32.45,22.99,45.96,37.14
	c39.29,41.15,65.16,90.32,76.81,145.89c8.28,39.49,7.02,78.81-16.16,114.61C6692.32,8290.92,6692.07,8297.62,6690.49,8303.46z"/>
<path d="M6160.68,5797.58c5.16-6.39,10.5-12.64,15.45-19.19c19.47-25.79,45.04-42.37,76.42-49.23c30.62-6.69,61.41-7.36,91.69,2.48
	c29.3,9.52,49.17,28.72,55.9,59.08c3.72,16.79,6.04,34.21,6.26,51.38c0.76,59.48,0.32,118.97,0.33,178.46
	c0,6.2-0.08,12.4,0.07,18.59c1.03,42.2,7.01,49.34,49.72,60.07c2.2,0.55,4.05,2.55,6.02,3.86c-0.54,6.71-5.42,7-10.4,6.99
	c-52.01-0.02-104.02-0.04-156.03-0.21c-2.19-0.01-4.38-1.5-6.61-2.32c-2.01-6.99,3.2-7.84,7.83-9.27
	c32.13-9.99,38.56-16.39,38.89-49.31c0.76-78.07,0.39-156.15-0.07-234.22c-0.28-47.31-23.25-76.35-82.15-69.23
	c-34.11,4.13-59.86,22.3-78.01,51.15c-14.16,22.51-21.62,47.39-21.84,73.93c-0.47,58.24-0.77,116.5-0.11,174.74
	c0.4,35.45,6.22,41.55,43.11,54.11c1.82,0.62,2.96,3.24,4.41,4.94c-1.41,1.64-2.81,4.7-4.24,4.71
	c-53.22,0.49-106.45,0.75-159.67,0.83c-3.15,0-6.31-1.7-9.66-2.67c1.99-11.87,11.29-8.17,17.42-9.88
	c26.39-7.36,35.26-17.16,37.58-43.6c0.86-9.85,0.67-19.81,0.68-29.72c0.04-127.65,0.04-255.3,0-382.95c0-9.91,0.13-19.86-0.63-29.73
	c-2.49-32.12-11.42-42.96-42.39-52.69c-4.33-1.36-8.56-3.02-12.61-4.45c0.64-3.02,0.59-4.45,1.25-5.38
	c0.57-0.81,1.92-1.48,2.96-1.51c29.66-1.07,59.32-1.92,88.97-3.15c8.54-0.35,17.04-1.8,25.57-2.58c1.02-0.09,2.13,0.88,4.76,2.05
	c4.71,27.33,1.46,55.79,2.05,84.06c0.57,27.25,0.12,54.53,0.12,81.79c0,28.41,0,56.82,0,85.23
	C6156.03,5795.71,6158.35,5796.64,6160.68,5797.58z"/>
<path d="M2505.7,5548.49c39.16-1.95,78.32-3.9,119.3-5.93c7.55,6.12,4.55,16.66,4.59,25.94c0.32,60.71,0.17,121.42,0.18,182.13
	c0,12.3,0,24.59,0,36.3c14.17,4.73,16.29-6.68,21.23-12.38c42.24-48.67,94.99-59.56,154.82-42.81
	c38.04,10.65,65.31,36.06,81.21,71.35c31.98,70.97,36.05,144.37,5.73,216.47c-40.81,97.05-161.64,131.18-250.14,73.01
	c-5.15-3.38-10.11-7.04-15.46-10.78c-25.65,5.34-38.36,34.91-68.22,36.53c0.93-20.24,2.43-38.54,2.51-56.85
	c0.29-71.86,0.14-143.72,0.14-215.58c0-66.9,0.18-133.81-0.15-200.71c-0.07-14.8-1.25-29.69-3.13-44.38
	c-2.8-21.87-15.1-36.01-36.9-41.33c-5.65-1.38-11.22-3.04-16.83-4.57C2504.95,5552.77,2505.33,5550.63,2505.7,5548.49z
	 M2629.8,5949.3c0.01,0,0.03,0,0.04,0c0,33.47,0.47,66.95-0.21,100.41c-0.31,15.32,5.53,25.77,18.07,34.02
	c25.76,16.95,53.8,24.21,84.51,23.1c35.37-1.27,61.15-17.56,78.39-48.02c11.77-20.79,17.7-43.46,21.23-66.9
	c7.05-46.95,7.21-93.99-0.56-140.75c-3.02-18.16-7.77-36.58-15.17-53.36c-24.6-55.79-86.98-72.51-136.23-36.32
	c-31.45,23.11-49.99,54.48-50.06,94.85C2629.76,5887.32,2629.8,5918.31,2629.8,5949.3z"/>
<path d="M4266.44,5584.87c3.57,11.73,5.44,14.94,5.38,18.12c-0.74,40.85-1.69,81.7-2.84,122.55c-0.06,2.08-2.29,4.19-3.77,6.09
	c-0.67,0.87-1.96,1.26-4.93,3.06c-2.39-3.65-5.78-7.06-7.09-11.14c-6.07-18.78-9.25-38.84-17.66-56.44
	c-30.44-63.72-87.89-82.18-148.73-68.25c-67.19,15.38-90.8,91.22-44.95,142.87c14.51,16.34,33.4,29.5,52.09,41.23
	c31.43,19.72,64.86,36.23,96.37,55.82c23.04,14.33,45.26,30.33,66.15,47.63c20.32,16.83,34.04,38.77,40.72,65.04
	c14.13,55.55-7.55,111.58-56.19,141.6c-9.42,5.82-19.45,11.42-29.96,14.56c-62.48,18.68-124.26,20.14-184.18-10.05
	c-3.32-1.67-6.51-3.59-9.87-5.17c-25.74-12.11-29.73-10.5-44.6,17.17c-1.03,1.91-3.73,2.93-5.66,4.36c-1.11-0.24-2.8-0.1-3.24-0.78
	c-1.9-2.92-4.78-6.03-4.91-9.16c-2.05-52.26,2.27-137.81,7.64-157.73c7.13-1.96,8.33,3.71,9.39,8.15
	c2.57,10.84,3.72,22.05,6.8,32.72c4.45,15.41,8.86,31.03,15.43,45.59c33.67,74.55,115.47,89.76,172.37,69.17
	c57-20.62,79.38-88.89,47.33-141.67c-10.49-17.28-24.73-31.13-41.19-42.27c-20.48-13.85-41.76-26.53-62.95-39.29
	c-24.38-14.68-49.83-27.73-73.32-43.69c-17.24-11.72-33.56-25.62-47.67-40.97c-29.96-32.58-36.81-72.44-28.04-114.54
	c7.24-34.74,28.42-60.63,60.49-75.65c56.9-26.64,114.5-28.37,171.84-0.54c10.01,4.86,19.52,10.83,29.73,15.19
	c10.73,4.58,18.61,1.69,25.42-8.34C4255.85,5604.22,4259.02,5597.82,4266.44,5584.87z"/>
<path d="M4833.88,8498.79c42.45-6.39,84.9-12.78,128.26-19.31c-1.04,2.84-1.15,5.36-2.31,6.02c-32.87,18.44-34.2,21.33-28.78,58.62
	c11.4,78.48,22.62,156.99,33.95,235.49c1.9,13.13,3.01,26.52,12.75,43.13c33.99-122.35,59.84-241.88,91.9-358.9
	c14.27-1.03,16.09,9.29,20.2,15.97c53.25,86.57,106.11,173.39,159.28,260c6.89,11.23,12.42,23.74,24.2,33.38
	c8.26-8.73,5.22-17.46,4.14-25.18c-7.58-53.99-15.53-107.93-23.47-161.87c-3.97-26.97-8.08-53.91-12.27-80.84
	c-1.14-7.32-2.4-14.67-4.31-21.82c-4.6-17.19-14.75-28.31-33.6-29.49c-4.52-0.28-9.01-1.24-21.57-3.04
	c37.2-11.25,67.95-11.96,102.87-18.33c-5.77,5.46-7.51,8.21-9.97,9.26c-21.79,9.34-27.88,26.41-24.7,48.47
	c4.06,28.21,7.73,56.48,11.89,84.68c9.21,62.52,18.63,125.01,27.95,187.51c0.73,4.9,1.07,9.9,2.23,14.7
	c4.14,17.16,12.79,29.47,32.58,29.7c3.36,0.04,6.71,1.48,14.89,3.41c-34.1,10.21-64.76,11.73-96.96,16.78
	c-7.6-11.79-15.16-22.88-22.07-34.37c-44.72-74.35-89.25-148.82-133.98-223.16c-6.23-10.36-10.73-22.25-24.26-30.71
	c-3.63,10.84-7.29,19.81-9.64,29.11c-22.18,87.66-44.09,175.38-66.21,263.06c-2.69,10.67-6.15,21.14-9.48,32.43
	c-30.32,8.4-60.12,12.26-96.34,15.35c8.46-5.12,11.29-7.44,14.53-8.7c19.39-7.51,25.37-22.26,22.74-41.64
	c-4.16-30.7-8.27-61.42-12.78-92.07c-9.03-61.3-18.32-122.55-27.49-183.83c-0.37-2.45-0.48-4.95-0.91-7.38
	C4871.73,8514.36,4867.87,8510.63,4833.88,8498.79z"/>
<path d="M5718.07,8318.18c41.05-15.81,82.09-31.62,129.63-49.92c-7.06,7.57-8.75,10.6-11.33,11.96
	c-20.45,10.77-22.85,27.58-16.34,47.48c1.92,5.88,4.19,11.65,6.42,17.42c29.45,76.23,58.85,152.47,88.47,228.63
	c2.94,7.55,7.21,14.57,13.32,26.73c7.78-18.98,4.94-33.57,5.61-47.56c0.77-16.08,0.64-32.21,0.94-48.32
	c0.27-14.87,0.45-29.74,0.94-44.6c0.53-16.1,1.5-32.18,2.06-48.28c0.52-14.86,0.8-29.73,1.12-44.6c0.32-14.87,0.6-29.73,0.84-44.6
	c0.26-16.11,0.2-32.22,0.75-48.32c0.49-14.44-1.25-29.18,2.75-43.81c13.64-0.66,18.8,8.88,25.23,15.45
	c71.96,73.44,143.64,147.17,215.57,220.64c8.29,8.47,15.28,18.96,31.25,24.2c-2.59-9.86-3.76-16.93-6.27-23.47
	c-30.12-78.62-60.44-157.16-90.71-235.71c-0.89-2.31-1.97-4.54-2.86-6.86c-8.97-23.5-23.75-37.46-50.99-31.66
	c-2.78,0.59-5.93-0.57-16.38-1.79c36.12-14.19,65.54-25.75,95.49-37.51c-0.2,3.26,0.51,6.22-0.56,7.15
	c-27.44,24.14-29.38,28.69-16.12,63.78c28.45,75.28,57.8,150.21,86.84,225.26c4.47,11.54,9.26,22.95,13.87,34.44
	c7.27,18.1,19.24,28.43,40.05,24.92c3.23-0.55,6.72,0.41,15.62,1.1c-8.77,4.38-12.83,6.84-17.18,8.51
	c-24.14,9.25-48.35,18.32-74.3,28.11c-28.29-25.09-52.47-53.2-78.25-79.63c-25.95-26.61-51.46-53.64-77.23-80.41
	c-25.61-26.6-50.75-53.7-79.95-82.56c-3.7,8.8-7.32,13.66-7.59,18.7c-1.14,21.02-1.42,42.1-1.76,63.16
	c-1.15,70.63-2.08,141.25-3.38,211.88c-0.27,14.67-1.78,29.32-2.72,43.98c-29.48,14.63-58.02,24.95-92.12,38
	c35.86-34.03,36.14-34.14,20-76.36c-30.5-79.81-61.35-159.48-92.06-239.2c-0.89-2.31-1.67-4.67-2.63-6.95
	C5760.04,8324,5755.31,8320.96,5718.07,8318.18z"/>
<path d="M3207.56,685.81c-37.73,14.61-75.45,29.22-114.61,44.39c-1.49-9.43,5.54-10.89,9.14-14.05
	c10.54-9.25,13.53-20.36,9.62-33.49c-2.12-7.13-4.42-14.22-7.1-21.15c-30.85-79.73-61.77-159.43-92.74-239.11
	c-2.14-5.51-4.89-10.79-6.9-15.19c-9.64-0.29-9.52,5.31-9.61,9.85c-0.89,43.39-1.39,86.79-2.34,130.18
	c-1.39,63.22-3,126.44-4.67,189.66c-0.29,11.05-1.29,22.09-1.93,32.51c-12.42,5.91-16.93-3.82-22.43-9.41
	c-53.01-53.93-105.73-108.14-158.55-162.26c-23.38-23.95-46.71-47.95-70.26-71.74c-5.03-5.09-10.87-9.38-16.41-14.1
	c-7.01,9.26-1.42,16.1,0.95,22.31c30.01,78.72,60.49,157.26,90.88,235.83c1.79,4.62,3.58,9.27,5.78,13.7
	c12.02,24.25,20.97,28.73,50.41,25.73c2.25-0.23,4.57,0.3,11.51,0.84c-30.33,18-61.34,24.13-89.72,38.42
	c-3.94-9.75,4.03-11.05,7.7-14c13.46-10.82,15.72-24.72,11.57-40.19c-2.56-9.54-6.24-18.81-9.79-28.06
	c-28.88-75.17-57.84-150.31-86.8-225.45c-1.78-4.62-3.68-9.21-5.64-13.76c-16.21-37.55-23.42-37.42-55.63-33.19
	c-0.28-0.97-0.97-2.06-0.72-2.87c0.31-1.04,1.2-2.31,2.15-2.68c27.64-10.72,55.31-21.35,85.36-32.9c7.6,7.02,15.98,14,23.49,21.81
	c61.86,64.34,123.53,128.88,185.36,193.25c8.38,8.73,17.35,16.9,25.5,24.8c13-6.2,9.16-16.07,9.36-23.93
	c2.37-90.49,4.41-180.98,6.44-271.48c0.28-12.33,0.04-24.68,0.04-37.12c27.8-17.79,57.99-25.16,86.04-37.6
	c5.91,7.76-1.84,8.77-4.99,10.63c-16.72,9.87-19.64,24.5-14.94,41.7c2.28,8.34,5.32,16.5,8.43,24.58
	c29.82,77.47,59.73,154.91,89.64,232.35c1.34,3.47,2.9,6.85,4.34,10.27C3169.55,678.42,3170.91,679.37,3207.56,685.81z"/>
<path d="M3969.91,518.38c4.28-1.94,8.61-3.77,12.83-5.83c12.4-6.03,18.72-15.86,17.93-29.77c-0.63-11.13-0.93-22.33-2.52-33.34
	c-12.24-84.57-24.74-169.11-37.27-253.64c-0.35-2.33-1.91-4.48-2.94-6.78c-10.53-0.33-10.68,8.13-12.39,14.97
	c-24.96,99.69-49.79,199.41-74.81,299.09c-3.22,12.83-5.34,26.19-12.65,39.41c-13.95-6.97-17.91-19.15-24.07-29.17
	c-53.19-86.54-106.08-173.27-159.38-259.75c-5.52-8.96-8.32-21-21.99-24.5c-0.74,4.01-2.24,7.4-1.8,10.52
	c12.03,84.6,24.25,169.17,36.47,253.74c0.35,2.45,1.33,4.83,1.48,7.28c1.95,31.9,17.71,50.36,50.54,52.54
	c0.73,0.05,1.34,1.96,2.52,3.81c-30.73,4.31-61.06,8.57-94.66,13.28c38.12-30.93,36.35-26.89,30.4-74.01
	c-10.56-83.54-23.86-166.72-36.03-250.06c-0.54-3.68-1.26-7.32-1.82-11c-3.53-23.32-14.26-39.35-40.24-40.45
	c-1.79-0.08-3.47-2.75-5.73-4.67c30.94-4.49,61.4-8.91,93.23-13.53c7.19,11.03,14.18,21.05,20.46,31.49
	c45.31,75.39,90.38,150.92,135.82,226.23c6.07,10.06,10.06,22.42,25.12,29.3c13.46-36.44,19.61-72.72,28.79-108.1
	c9.33-35.95,18.06-72.06,27.55-107.97c9.44-35.74,15.69-72.39,29.36-109.18c29.1-4.56,58.04-9.09,87.46-13.7
	c-0.23,3.37-0.02,5.39-0.43,5.52c-30.74,9.98-31.71,33.46-27.75,59.75c11.08,73.48,21.81,147.01,32.71,220.51
	c2.54,17.15,5.46,34.24,7.69,51.43c2.94,22.61,13.99,36.54,38.02,37.87c2.02,0.11,3.93,2.25,8.33,4.93
	c-44.29,6.43-86.4,12.55-128.5,18.67C3971.08,521.65,3970.5,520.02,3969.91,518.38z"/>
<path d="M4723.31,6057.65c-10.3,9.2-17.29,15.84-24.68,22c-42.16,35.15-89.92,45.04-142.47,30.1
	c-29.48-8.38-50.47-26.77-56.57-57.82c-5.92-30.13,2.19-57.26,26.26-76.84c15.19-12.35,32.34-23.04,50.08-31.33
	c26.83-12.54,55.05-22.09,82.47-33.41c14.83-6.12,29.59-12.59,43.74-20.1c16.59-8.81,25.77-23.09,24.82-42.35
	c-1.1-22.16-1.8-44.44-4.86-66.36c-2.78-19.92-15.62-35.22-34.67-39.93c-39.12-9.66-78.03-10.3-115.77,16.75
	c5.26,5.69,9.28,9.59,12.79,13.91c6.11,7.54,12.92,14.78,17.58,23.18c5.86,10.56,3.43,21.73-2.39,31.9
	c-8.28,14.47-29.72,22.26-49,18.13c-19.35-4.15-30.24-16.3-32.1-35.62c-1.51-15.68,2.13-29.94,14.01-40.51
	c9.15-8.15,18.96-16.32,29.86-21.62c52.08-25.36,106.79-30.24,162.57-15.65c42.5,11.12,64.33,38.13,68.76,81.87
	c1.62,15.97,1.87,32.13,1.93,48.21c0.22,58.19-0.05,116.38,0.23,174.57c0.06,12.31,0.58,24.83,2.88,36.87
	c3.24,17.03,15.83,24.66,32.96,20.92c8.24-1.8,16.12-5.29,23.85-7.9c6.88,6.03,1.48,9.44-2.02,11.82
	c-22.44,15.29-47.47,20.83-74.15,16.94c-25-3.65-44.43-15.02-50.8-41.85C4727.74,6069.97,4726.29,6066.55,4723.31,6057.65z
	 M4724.33,5892.26c-34.23,15.69-63.71,28.51-92.51,42.72c-13.2,6.51-26.18,14.45-37.3,24.03c-23.39,20.14-31.61,46.77-27.12,77.07
	c4.76,32.08,24.89,50.82,57.07,53.58c33.3,2.85,60.22-10.31,83.24-33.48c12.77-12.85,20.43-26.89,19.75-46.04
	c-1.13-32.2-0.21-64.47-0.43-96.71C4727,5907.61,4725.6,5901.82,4724.33,5892.26z"/>
<path d="M5584.39,5762.31c7.83,6.79,15.09,11.68,20.57,18.1c22.18,25.96,11.21,57.82-22.04,64.77
	c-18.36,3.83-34.62,0.28-46.23-15.61c-10.02-13.71-10.53-38.25,1.25-52.25c9.33-11.08,20.84-21.78,33.61-28.27
	c54.11-27.51,111.29-32.02,169.45-15.75c38.63,10.81,59.48,38.45,63.87,78.02c1.77,15.95,2.1,32.12,2.16,48.19
	c0.25,59.43-0.05,118.85,0.26,178.28c0.06,12.3,0.75,24.81,3.14,36.82c3.07,15.41,15.02,23.15,30.1,20.31
	c9.36-1.77,18.37-5.44,27.07-8.12c5.61,7.2,0.17,10.01-3.46,12.34c-23.94,15.36-50.05,20.67-78.05,15.41
	c-22.31-4.18-38.83-15.56-45.47-38.48c-1.36-4.69-2.82-9.34-4.16-13.76c-12.95-1.04-17.29,9.62-24.42,15.72
	c-41.73,35.72-89.13,46.38-141.99,32.4c-29.6-7.83-51.46-25.19-58.44-56.01c-7.48-33.03,2.13-61.91,29.27-82.54
	c15.61-11.87,32.99-22.03,50.86-30.14c28.11-12.76,57.3-23.12,86.02-34.55c57.97-23.07,63.56-31.37,60.57-93.84
	c-0.59-12.24-2.74-24.62-5.92-36.48c-5.23-19.51-18.81-32.92-38.09-36.88c-33.14-6.8-66.41-7.18-97.71,9.17
	c-2.18,1.14-4.35,2.51-6.08,4.22C5588.87,5755.02,5587.8,5757.25,5584.39,5762.31z M5735.89,5896.4c-4.2-0.44-7.02-1.65-8.88-0.79
	c-28.11,12.91-56.38,25.54-84,39.45c-13.16,6.63-26.18,14.49-37.26,24.1c-23.29,20.21-31.53,46.87-26.93,77.15
	c4.86,32.04,25.13,50.77,57.32,53.35c36.37,2.91,64.61-12.73,88.18-39.14c9.51-10.65,14.7-22.21,14.45-36.89
	c-0.6-34.71-0.14-69.44-0.39-104.16C5738.33,5904.93,5736.68,5900.41,5735.89,5896.4z"/>
<path d="M2285.99,8096.79c7.12,1.54,14.24,3.08,22.79,4.93c4.38-5.93,9.13-11.5,12.94-17.65c16.95-27.38,33.42-55.06,50.47-82.37
	c14.7-23.54,26.7-46.64-4.25-69.94c16.71,3.89,27.89,12.75,39.91,19.88c12.78,7.57,25.35,15.51,38,23.3
	c12.38,7.63,24.75,15.27,38.13,23.54c-3.2,1.62-4.39,2.81-5.33,2.63c-36.38-6.74-39.59-6.25-57.67,23
	c-48.2,77.96-95.69,156.35-143.44,234.59c-1.93,3.17-3.57,6.52-5.49,9.69c-10.55,17.45-8.65,32.85,7.21,46.23
	c2.68,2.26,4.65,5.36,10.16,11.85c-7.04-2.09-10.12-2.36-12.49-3.79c-41.28-25.03-82.37-50.38-123.73-75.28
	c-23.52-14.16-45.29-30.33-62.77-51.69c-11.89-14.53-21.31-30.5-24.51-49.35c-8.04-47.41,24.11-91.53,73.74-98.29
	c18.05-2.46,36.89,0.61,55.34,1.7c5.85,0.35,11.61,2.42,23.4,5.02c-7.53-11.38-11.38-18.24-16.21-24.31
	c-16.72-21.02-20.99-44.32-13.72-69.92c5.07-17.87,10.28-35.69,15.47-53.52c2.77-9.51,6.09-18.88,8.4-28.5
	c7.9-33-0.04-43.02-36.18-46.77c-1.53-0.16-2.84-2.51-6.01-5.5c21.03-5.67,39.7-5.24,58.01,5.04
	c27.69,15.54,38.71,37.04,31.67,68.02c-5.2,22.88-13.07,45.16-19.63,67.74c-4.14,14.26-8.99,28.39-11.89,42.9
	c-5.4,27.03,3.53,48.54,26.84,64.08c11.11,7.41,21.44,15.99,32.15,24.07c-7.82-3.25-15.75-6.36-23.51-9.83
	c-11.23-5.02-22.01-11.23-33.55-15.29c-38.12-13.43-67.45-5.33-91.75,26.73c-43.67,57.63-38.21,103.29,21.96,144.06
	c34.86,23.62,50.14,20.6,72.5-14.6c19.85-31.25,38.82-63.05,57.99-94.73c3.69-6.09,6.51-12.7,9.4-18.41
	C2294.65,8108.38,2290.32,8102.59,2285.99,8096.79z"/>
<path d="M4168.72,8502.41c-6.65,3.66-7.64,4.67-8.67,4.71c-27.81,0.95-38.58,18.02-41.34,43.13c-2.84,25.83-6.06,51.63-9.11,77.44
	c-6.84,57.76-13.77,115.52-20.48,173.3c-1.43,12.29-2.24,24.65-2.99,37c-1.1,18.15,5.37,31.27,24.22,36.46
	c4.16,1.15,7.76,4.32,18.11,10.34c-67.59-7.72-127.68-13.94-187.56-21.69c-30.83-3.99-60.21-13.96-87.31-29.71
	c-47.43-27.57-73.25-69.01-77.65-123.49c-2.71-33.53-1.04-66.93,9.53-99.21c22.37-68.3,68.91-109.98,139.27-124.48
	c30.48-6.29,60.86-6.98,92.1-2.07C4065.62,8491.81,4114.94,8496.13,4168.72,8502.41z M3830.54,8698.3
	c1.11,16.05,1.13,32.27,3.54,48.13c5.24,34.44,20.7,63.34,49.84,83.75c32.56,22.8,70.28,30.12,108.54,33.99
	c20.74,2.09,32.59-7.97,37.78-27.99c3.09-11.92,4.62-24.3,6.12-36.57c6.76-55.31,13.39-110.64,19.79-166
	c3.84-33.21,8.29-66.41,10.42-99.74c1.76-27.55-8.35-39.72-35.38-41.95c-25.78-2.12-52.08-2.84-77.75-0.25
	c-39.34,3.97-69.73,24.68-89.02,59.47c-7.73,13.95-13.56,29.2-18.36,44.46C3835.6,8628.92,3831.98,8663.41,3830.54,8698.3z"/>
<path d="M4762.17,500.01c41.82-12.29,44.1-14.89,48.72-54.04c10.31-87.32,20.48-174.66,30.71-261.99c0.58-4.92,1.28-9.83,1.71-14.77
	c1.7-19.39-4.65-33.98-24.26-40.77c-2.11-0.73-3.83-2.58-6.03-4.13c1.64-1.1,3.27-3.15,4.65-2.99c61.4,7.18,122.83,14.1,184.1,22.22
	c14.53,1.92,28.89,6.93,42.69,12.2c80.41,30.72,109.37,86.16,110.45,159.2c0.36,24.39-4.12,49.47-10.28,73.22
	c-18.85,72.63-75.56,124.49-160.98,132.22c-30.47,2.76-61.7-0.9-92.44-3.43c-32.04-2.64-63.92-7.35-95.83-11.37
	C4785.95,504.41,4776.61,502.47,4762.17,500.01z M4938.49,517.4c0.08-0.85,0.16-1.7,0.25-2.55c8.66,0,17.43,0.88,25.98-0.15
	c47.38-5.7,85.84-26.49,105.3-71.69c27.01-62.73,36.81-128.39,23.06-196.16c-7.9-38.93-30.74-66.95-66.41-84.4
	c-22.46-10.98-46.32-17.64-70.98-20.5c-45.06-5.24-54.31,1.69-60.24,47.68c-9.98,77.4-18.77,154.94-28.06,232.43
	c-1.92,15.99-4.63,31.93-5.5,47.97c-1.3,23.95,5.91,34.31,29.22,40.19C4906.52,514.12,4922.67,515.11,4938.49,517.4z"/>
<path d="M3172.73,6236.38c16.07,2.14,28.02-4.27,37.67-13.58c8.77-8.45,16.55-18.52,22.53-29.14c7.87-13.97,13.78-29.08,20.13-43.87
	c5.34-12.45,10.1-25.14,15.19-37.92c-4.57-10.97-8.53-21.34-13.14-31.41c-41.78-91.25-83.99-182.29-125.33-273.74
	c-12.67-28.01-27.95-52.6-64.48-64.68c9.27-3.19,13.39-6.07,17.21-5.71c47.06,4.46,94.03,3.51,141.03-0.89
	c6.44-0.6,14.8-4.12,19.4,6.31c-6.7,6.88-15.87,3.3-23.52,5.24c-23.34,5.93-30.43,16.95-25.22,40.89c1.3,6,3.45,11.91,5.93,17.54
	c30.51,69.14,61.09,138.24,91.89,207.25c1.88,4.2,5.77,7.5,10.34,13.25c4.29-7.02,8.02-11.71,10.27-17.03
	c26.98-63.91,53.87-127.86,80.43-191.94c3.77-9.09,6.64-18.78,8.24-28.48c2.38-14.35-4.83-27.29-17.79-33.72
	c-5.51-2.73-11.57-4.39-17.47-6.26c-5.83-1.84-11.76-3.33-22.02-6.2c6.58-3.71,9.9-7.19,13.26-7.23c33.44-0.35,66.88-0.2,100.31,0.1
	c1.87,0.02,3.72,2.62,5.59,4.02c-0.66,2.08-0.74,5.45-2.06,6.03c-27.37,12.17-39.03,36.67-49.73,62.18
	c-40.23,95.97-80.57,191.9-121,287.79c-12.03,28.54-24.13,57.06-36.95,85.24c-5.61,12.33-11.94,24.69-20.01,35.48
	c-21.64,28.89-67.3,41.7-100.42,29.44c-23.03-8.53-33.07-26.96-26.24-49.97c1.66-5.59,5.39-11.29,9.73-15.21
	c13.49-12.2,40.99-12.58,55.46-1.61c10.18,7.71,14.65,20.52,10.84,32.93c-1.43,4.67-4.46,8.82-6.42,13.35
	C3175.07,6227.91,3174.33,6231.24,3172.73,6236.38z"/>
<path d="M5019.74,5739.85c13.14-9.05,26.57-2.62,39.17-3.07c14.81-0.53,29.64-1.04,44.42-2.03c13.43-0.9,26.81-2.45,38.99-3.6
	c10.34,13.09,5.86,25.92,7.02,37.85c1.02,10.46-2.29,21.68,5.86,34.69c8.13-10.47,14.55-18.91,21.15-27.21
	c16.46-20.7,35.73-37.85,61.3-46.39c27.16-9.07,53.77-8.19,78.4,7.55c22.49,14.36,30.49,38.89,21.03,61.04
	c-11.99,28.06-49.34,35.56-71.37,14.34c-10.4-10.02-13.15-27.21-5.37-41.18c4.6-8.26,10.97-15.53,16.06-22.57
	c-4.97-9.88-12.44-10.17-19.9-9.16c-22.84,3.09-42.55,12.93-58.64,29.39c-28.73,29.4-46.73,64.46-47.85,105.77
	c-1.47,54.46-1.1,108.99-0.19,163.47c0.54,32.78,15.69,49.73,47.55,57.19c10.17,2.38,20.55,3.86,32.12,5.98
	c-3.13,4.1-4.39,7.21-5.68,7.22c-63.09,0.49-126.18,0.75-189.27,0.89c-3.43,0.01-6.87-1.25-10.06-1.87
	c-2.15-7.72,3.11-8.57,7.79-9.61c6.02-1.34,12.37-1.64,18.12-3.68c15.21-5.38,24.73-16.25,27.14-32.35
	c1.28-8.53,1.56-17.27,1.57-25.92c0.11-73.08,0.4-146.15-0.09-219.22c-0.33-48.79-6.38-56.22-52.51-71.71
	C5024.59,5745.02,5023.19,5742.89,5019.74,5739.85z"/>
<path d="M5397.83,205.67c91.99,23,183.98,46,277.99,69.5c-4.24,30.13-15.89,56.93-21.66,84.71c-10.12,0.29-8.77-5.91-8.85-10.3
	c-0.19-11.12,0.72-22.26,0.31-33.37c-0.82-22.12-12.54-37.5-32.29-45.9c-13.58-5.78-27.97-9.93-42.33-13.51
	c-19.16-4.78-38.47-9.58-58.01-12.01c-18.57-2.31-27.6,4.18-34.06,21.81c-4.24,11.58-6.73,23.81-9.8,35.8
	c-6.15,23.98-12.4,47.95-18.11,72.04c-2.51,10.59-3.8,21.46-5.59,31.87c15.69,10.65,31.51,12.78,47.47,14.61
	c22.27,2.55,38.02-6.85,49.53-25.56c5.46-8.88,6.87-20.75,17.98-27.07c-0.38,22.52-23.18,120.41-33.17,140.89
	c-5.3-10.58-2.75-20.14-2.73-29.02c0.06-25.64-11.98-42.46-36.04-50.18c-13.95-4.48-28.39-7.44-43.78-11.39
	c-3.61,7.04-7.45,12.08-8.9,17.74c-10.11,39.59-20.25,79.18-29.32,119.01c-6.03,26.49-0.18,38.23,24.19,46.03
	c30.58,9.78,61.58,18.38,93.92,21.01c32.08,2.61,55.15-10.29,69.92-38.53c4.59-8.77,8.34-17.99,13.17-26.62
	c1.4-2.49,5.21-3.63,7.99-5.45c1.12,2.09,2.4,3.34,2.19,4.25c-6.7,30.11-13.53,60.19-20.68,91.76c-6.42,0-12.55,1.18-18.05-0.18
	c-86.48-21.29-172.89-42.88-259.3-64.49c-3.51-0.88-6.82-2.54-15.39-5.81c11.18-1.8,17.53-2.51,23.72-3.89
	c10.43-2.33,17.76-8.95,21.62-18.65c3.65-9.17,6.69-18.66,9.09-28.24c20.39-81.68,40.58-163.41,60.81-245.13
	c1.79-7.21,3.42-14.46,5.13-21.69c4.53-19.09,0.27-34.26-18.71-43.32c-3.74-1.78-6.8-4.98-10.18-7.52
	C5396.54,207.8,5397.19,206.74,5397.83,205.67z"/>
<path d="M6273.4,503.65c-20.37-13.95-39.91-21.6-60.28-26.77c-27.83-7.05-51.46,0.11-69.19,23.58
	c-9.44,12.49-18.74,25.08-28.44,38.07c-2.33-2.92-3.98-4.24-3.76-4.8c12.35-30.84,24.86-61.62,38.26-94.66
	c6.51,1.59,12.47,2.12,17.61,4.45c91.34,41.39,182.59,82.97,273.81,124.62c4.31,1.97,8.15,4.99,13.63,8.41
	c-2.6,6.49-4.44,12.16-7.06,17.44c-12.41,24.98-25.03,49.86-40.15,79.89c-1.77-9.23-3.32-12.46-2.76-15.27
	c1.93-9.7,4.3-19.34,7.03-28.86c11.13-38.8-6.07-63.64-32.63-78.54c-15.96-8.95-32.85-16.25-50.91-25.07
	c-5.35,7.92-10.23,13.37-13.13,19.72c-40.19,87.87-80.39,175.74-119.96,263.89c-18.06,40.24-15.87,45.63,22.04,72.91
	c0.85,0.61,1.13,2.02,1.67,3.06c-0.61,0.92-1.03,2.29-1.87,2.65c-0.9,0.39-2.33,0.09-3.33-0.37
	c-43.98-19.9-87.95-39.82-131.88-59.84c-2.99-1.36-5.61-3.54-7.35-8.54c7,1.47,14.13,2.49,20.98,4.48
	c18.38,5.33,31.3-2.11,41.02-17.06c3.36-5.17,6.34-10.67,8.89-16.29c40.98-90.24,81.88-180.51,122.69-270.83
	C6270.32,515.51,6271.26,510.63,6273.4,503.65z"/>
<path d="M7830.86,7354.75c-20.42,24.53-40.84,49.06-61.38,73.73c-7.02-6.27-1.15-10.18,0.59-13.58c9.63-18.68,3.5-33.51-10.39-46.61
	c-7.2-6.79-14.74-13.24-22.34-19.6c-38.95-32.59-78.57-64.42-116.69-97.94c-19.41-17.06-37.94-35.77-53.75-56.14
	c-27.64-35.62-28.62-75.66-10.59-115.83c15.07-33.58,39.14-60.42,70.37-79.67c37.65-23.21,77.47-25.32,116.4-3.62
	c19.32,10.77,37.2,24.52,54.49,38.46c36.64,29.54,72.46,60.1,108.62,90.23c8.56,7.14,16.99,14.45,25.73,21.36
	c28.49,22.5,31.78,22.52,64.91,2.1c0.63-0.39,2.13,0.66,4.96,1.64c-26.89,32.75-53.35,65.07-80,97.23
	c-2.15,2.59-5.59,4.1-10.59,7.63c1.86-5.86,2.38-9.54,4.09-12.53c11.37-19.82,5.13-35.43-11.05-48.99
	c-24.68-20.68-49.22-41.53-73.94-62.16c-28.53-23.81-56.51-48.35-86.03-70.88c-17.55-13.4-36.8-25.16-56.69-34.75
	c-28.42-13.72-55.63-7.62-79.74,11.94c-19.58,15.89-34.58,35.58-43.85,59.05c-10.55,26.74-9.1,53.34,3.84,79.12
	c10.16,20.23,24.49,37.46,41.52,51.96c49.03,41.76,98.65,82.84,148.09,124.12c3.79,3.16,7.89,6.02,12.11,8.58
	c13.7,8.31,27.77,10.24,42.03,1.39c5.19-3.22,10.09-6.9,15.12-10.37C7828.1,7352,7829.48,7353.37,7830.86,7354.75z"/>
<path d="M1160.39,1576.49c0.85,3.61,1.76,5.16,1.32,5.98c-13.81,25.75-3.74,44.54,16.71,61.21c29.77,24.27,59,49.2,88.45,73.86
	c17.1,14.32,35.05,27.77,51.03,43.24c16.83,16.29,33.34,33.37,47.18,52.18c22,29.9,26.43,63.71,13.3,98.81
	c-16.28,43.52-45.08,76.84-86.06,98.49c-35.4,18.7-71.85,18.16-106.55-2.03c-18.11-10.54-35.21-23.15-51.51-36.38
	c-40.42-32.78-80.11-66.45-120.1-99.76c-4.76-3.97-9.46-8.01-14.29-11.89c-32.37-26-35.09-26.13-69.86-3.56
	c-0.34-1.08-0.99-2.17-0.93-3.23c0.06-1.15,0.53-2.47,1.26-3.35c27.75-33.14,55.55-66.24,83.75-99.83
	c7.09,6.85,0.22,11.32-1.9,15.23c-8.55,15.71-4.48,28.6,7.34,40.22c5.3,5.2,10.81,10.22,16.5,14.98
	c47.55,39.71,94.84,79.76,142.96,118.78c16.26,13.18,33.75,25.49,52.3,35.04c38.62,19.88,70.66,13.46,101.17-17.47
	c2.61-2.64,5.1-5.41,7.52-8.23c43.46-50.74,43.95-99.67,0.83-150.31c-9.6-11.27-20.37-21.75-31.67-31.31
	c-43.51-36.82-87.26-73.36-131.33-109.52c-28.42-23.32-31.69-23.6-70.49-14.3C1121.93,1617.03,1141.14,1597.72,1160.39,1576.49z"/>
<path d="M1444.14,7170.95c31.39,31.53,60.38,60.66,93.64,94.07c-44.15-16.96-47.22-15.86-63.44,21.51
	c-11.8,27.18-22.94,54.65-33.97,81.01c14.53,24.18,72.13,83.52,104.94,108.17c29.5-8.58,59.25-20.01,87.24-35.89
	c4.23-2.4,8.09-5.78,11.46-9.34c9.22-9.76,13.19-20.91,6.81-33.84c-4.06-8.23-8.52-16.26-13.79-26.25c5.04,1.84,7.78,2.02,9.21,3.48
	c20.8,21.15,41.44,42.45,62.02,63.81c0.53,0.56-0.07,2.21-0.14,3.36c-2.03,0.84-4.29,2.72-6.05,2.34
	c-25.45-5.61-48.71,1.23-72.13,10.64c-87.18,35.01-174.63,69.37-261.98,103.96c-14.94,5.92-29.8,12.07-44.89,17.58
	c-5.31,1.94-11.19,2.29-17.4,3.48c-2.88-15.69,4.6-26.16,9.05-37.19c37.89-94.09,76.03-188.08,114.1-282.11
	c1.86-4.59,3.69-9.19,5.51-13.78C1448.74,7209.64,1448.74,7209.64,1444.14,7170.95z M1371.51,7543.98
	c42.73-11.12,134.44-49.13,155.53-63.96c-15.26-25.8-68.46-79.04-91.92-92C1416.97,7417.86,1377.09,7514.45,1371.51,7543.98z"/>
<path d="M7628.13,1426.3c-5.47,14.43-9.58,25.91-14.14,37.21c-37.53,92.85-75.19,185.66-112.71,278.52
	c-5.55,13.74-12.35,27.32-15.41,41.64c-3.01,14.09-1.99,29.04-2.84,45.54c-6.44-5.79-12.11-10.4-17.23-15.56
	c-23.25-23.47-46.35-47.09-66.91-74.07c6.04,3.09,11.87,6.75,18.17,9.16c11.16,4.26,18.73,1.67,25.86-7.87
	c1.48-1.98,3.08-3.96,4.07-6.18c15.02-33.71,31.01-67.05,41.44-101.4c-17.98-24.74-73.6-81.42-103.52-105.56
	c-28.58,7.65-56.75,19.6-84.11,33.66c-3.27,1.68-6.31,3.91-9.19,6.23c-16.55,13.33-19.28,24.93-10.32,45.67
	c2.28,5.28,5.82,10.03,7.04,16.42c-26.22-19.53-47.94-43.25-71.57-68.52c46.28,2.55,46.31,2.64,95.06-16.61
	c91.94-36.31,183.8-72.82,275.8-108.98C7598.77,1431.22,7609.22,1423.52,7628.13,1426.3z M7493.91,1621.48
	c24.15-50.41,41.51-96.5,60.78-141.72c2.21-5.18,3-10.97,4.4-16.32c-4.56-1.5-7.25-3.44-8.95-2.79
	c-44.91,17.31-89.75,34.78-134.48,52.54c-5.4,2.14-10.07,6.09-18.74,11.46C7428.46,1557.23,7458.08,1588.07,7493.91,1621.48z"/>
<path d="M4590.75,8652.12c10.61-26.46,19.86-49.32,28.91-72.26c1.81-4.58,3.26-9.38,4.18-14.2c5.62-29.33-0.56-40.08-28.85-50.54
	c-3.24-1.2-6.62-2.04-16.59-5.07c21.32-4.68,36.62-2.48,51.6-2.97c14.6-0.47,29.22-0.1,44.1-0.1c-0.66,4.17-0.21,7.47-1.48,8.4
	c-20.97,15.37-31.39,37.61-40.8,60.76c-38.19,93.99-76.49,187.94-115.07,281.77c-4.98,12.1-8,25.63-19.49,36.56
	c-12.58-9.77-15.6-23.5-20.91-35.29c-41.67-92.53-82.87-185.27-124.21-277.95c-2.02-4.52-4-9.06-5.93-13.62
	c-8.81-20.71-18.76-40.5-40.92-48.98c0.95-3.3,1.03-4.58,1.65-5.45c0.63-0.87,1.81-1.88,2.75-1.88
	c38.21-0.09,76.42-0.08,114.14-0.08c-0.48,0.9-1.01,3.77-2.54,4.48c-28.57,13.16-31.95,18.04-21.14,43.99
	c13.23,31.75,24.69,64.47,43.97,95.8C4492.19,8656.6,4540.03,8657.6,4590.75,8652.12z M4452.22,8666.64
	c-0.5,2.38-2.09,5.21-1.33,7.07c18.32,44.38,36.82,88.69,55.53,132.91c2.23,5.27,5.84,9.95,8.78,14.86c3.88-2.16,7.17-2.83,7.9-4.57
	c18.95-45.44,37.74-90.96,56.21-136.59c1.73-4.28,1.21-9.47,1.73-14.14C4552.35,8660.6,4483.43,8660.98,4452.22,8666.64z"/>
<path d="M4620.62,491.77c-36.84,0-73.68,0-110.66,0c29.37-21.41,30.03-23.35,15.06-58.77c-10.11-23.93-20.74-47.65-31.34-71.38
	c-1.49-3.33-4.07-6.16-6.04-9.07c-26.51-4.61-100.58-4.8-146.92-0.14c-15.49,26.41-27.17,56.21-35.58,87.07
	c-7.1,26.06,0.4,37.56,26.79,47.95c4.1,1.62,8.1,3.5,13.96,6.04c-4.41,2.35-6.23,4.17-8.07,4.18c-28.22,0.18-56.44,0.13-83.92,0.13
	c-4-8.29,1.83-10.18,5.56-12.7c19.62-13.27,28.25-33.86,36.73-54.56c32.37-78.99,64.67-158.01,97.02-237.01
	c9.38-22.9,18.7-45.82,28.28-68.63c2.29-5.45,5.55-10.49,8.83-16.58c13.08,6.29,14.61,18.29,18.82,27.62
	c44.77,99.27,89.12,198.73,133.29,298.27C4591.56,454.78,4601.03,474.73,4620.62,491.77z M4348.27,338.71
	c31.39,6.22,98.76,5.59,126.61-1.05c1.71-0.41,2.76-3.6,5.65-7.65c-20.17-46.16-40.81-93.61-61.78-140.91
	c-1.25-2.83-5.13-4.5-7.87-6.77C4393.89,209.67,4354.77,306.66,4348.27,338.71z"/>
<path d="M3457.77,8579.8c9.66,1.1,19.31,2.2,30.77,3.51c3.78-11.67,7.67-21.88,10.38-32.38c7.42-28.71,14.38-57.55,21.42-86.36
	c1.47-6,2.61-12.08,3.72-18.15c3.41-18.72,0.25-34.31-19.2-43.19c-3.84-1.75-6.22-6.68-9.36-10.07c-0.08,0.08-0.81,0.78-0.81,0.78
	c43.58,8.15,86.49,18.93,137.63,32.74c-10.62,2.75-13.01,3.75-15.47,3.95c-28.32,2.3-34.2,5.95-41.51,32.77
	c-9.77,35.84-18.01,72.1-26.93,108.17c-12.2,49.3-24.42,98.6-36.62,147.9c-1.79,7.21-3.69,14.4-5.28,21.65
	c-4.76,21.67-1.06,39.52,22.06,48.66c2.15,0.85,3.79,3,8.76,7.1c-9.04-0.8-14.99-0.56-20.54-1.94
	c-79.27-19.65-158.51-39.43-237.69-59.46c-8.12-2.05-15.8-5.87-24.6-9.22c6.49-28.76,14.61-55.32,24.79-88.23
	c7.01,16.65,3.79,27.41,4.15,37.62c1.19,34.07,11.54,51.25,43.13,61.62c28.14,9.24,57.19,16.01,86.19,22.21
	c19.6,4.19,30.26-2.73,37.98-21.16c2.85-6.8,4.72-14.07,6.55-21.25c8.86-34.81,17.64-69.64,26.22-104.52
	c1.14-4.65,1.01-9.61,1.2-11.59c-5.28-14.66-23.1-8.35-26.19-21.82L3457.77,8579.8z"/>
<path d="M676.38,6800.76c4.68,0.16,10.12-1.14,13.89,0.8c6.49,3.33,11.6,9.27,17.91,13.09c36.62,22.13,79.25,8.64,94.42-31.79
	c5.9-15.73,7.27-33.81,7.53-50.87c0.54-35.9-1.95-71.84-1.32-107.73c0.32-18.36,3.39-36.93,7.51-54.88
	c5.22-22.72,19.67-39.72,39.39-51.92c35.08-21.69,70.23-21.15,104.86,0.99c25.74,16.45,43.78,39.74,57.43,66.72l0.72-0.84
	c-3.26-1.15-7.41-1.4-9.59-3.61c-6.04-6.13-10.88-13.45-16.87-19.64c-45.53-47.12-113.36-17.28-124.52,35.01
	c-4.83,22.65-4.74,46.54-5.11,69.9c-0.35,22.19,2.61,44.42,2.22,66.61c-0.28,15.91-2.88,31.92-5.83,47.63
	c-11.27,59.92-91.41,107.51-156.08,46.01c-8.87-8.43-17.33-17.29-25.98-25.95C676.96,6800.29,676.38,6800.76,676.38,6800.76z"/>
<path d="M1679.96,1604.93c5.8-10.97,10.09-18.02,13.39-25.51c17.74-40.3-1.58-84.4-43.09-99.11c-16.77-5.94-33.93-7.03-51.15-3.46
	c-24.17,5.01-48.22,10.61-72.22,16.37c-27.68,6.64-55.28,12.76-84.13,11.37c-26.12-1.26-48.05-11.07-65.56-30.06
	c-24.79-26.89-32.13-57.74-18.52-92.51c6.32-16.15,14.26-31.27,28.86-43.32c5.97,8.79-1.94,13.65-4.19,19.01
	c-22.83,54.17,18.79,96.39,63.58,94.47c20.74-0.89,41.37-6.23,61.89-10.37c33.87-6.83,67.43-15.34,101.47-21.02
	c14.2-2.37,29.73-1.33,43.94,1.62c55.68,11.57,87.56,68.01,70.16,122.15C1716.02,1570.63,1705.42,1585.6,1679.96,1604.93z"/>
<path d="M7541.88,7658.5c3.06-7.77,6.74-15.36,9.08-23.34c11.19-38.2-13.24-77.4-53.05-81.47c-19.26-1.97-39.5,0.53-58.7,4.15
	c-31.52,5.95-62.37,15.44-93.87,21.5c-18.03,3.47-36.82,4.62-55.21,4.22c-57-1.25-100.28-61.56-86.77-114.26
	c6.63-25.86,18.55-47.87,38.01-66.65c7.44,9.52-1.36,14.48-3.92,19.97c-25.66,54.99,20.21,106.88,66.77,104.66
	c18.41-0.87,36.96-2.61,55.03-6.09c31.51-6.07,62.67-13.94,94.04-20.79c19.73-4.31,39.27-3.05,58.6,2.88
	c54.12,16.62,79.95,72.55,57.23,124.53c-2.96,6.77-6.49,13.37-10.52,19.56c-3.26,5.02-7.66,9.29-11.56,13.89
	C7545.33,7660.34,7543.61,7659.42,7541.88,7658.5z"/>
<path d="M8246.12,2202.85c-8.36-4.85-16.69-9.77-25.09-14.55c-36.53-20.81-80.29-5.78-94.23,33.92c-5.22,14.86-7.19,31.4-7.63,47.26
	c-0.63,22.2,1.06,44.51,2.67,66.71c1.98,27.31,1.21,54.4-3.47,81.36c-13.25,76.46-93.35,108.96-155.57,62.86
	c-15.91-11.79-30.58-25.15-38.28-44.28l-0.8,0.83c10.79-2.46,14.59,7.44,21.15,12.21c45.93,33.39,101.23,14.94,117.05-40.21
	c4.36-15.18,5.71-31.62,5.94-47.52c0.43-29.66-1.89-59.37-1.27-89.02c0.39-18.36,1.45-37.46,6.77-54.83
	c21.61-70.53,99.22-90.7,153.35-40.67c8.03,7.42,17.17,14.49,18.63,26.7L8246.12,2202.85z"/>
<path d="M7203.9,1057.94c-24.72-6.25-42.22,3.09-57.15,23.16c-24.35,32.73-50.4,64.18-76.88,97.63c5.6,8.13,10.64,15.46,18.09,26.29
	c-11.2-5.36-18.42-8.81-26.82-12.83c-7.18,8.16-13.93,15.18-19.95,22.78c-23.06,29.1-46.56,57.89-68.55,87.79
	c-14.7,19.99-12.82,31.58,4.11,49.04c6.49,6.69,13.46,12.92,19.4,20.17c-27.89-14.4-101.22-71.47-120.86-92.57
	c5.31-4.74,9.01,0.84,13.05,2.37c16.05,6.05,29.08,1.78,39.94-10.73c5.67-6.54,11.21-13.21,16.59-20
	c51.51-65,102.97-130.04,154.45-195.07c1.54-1.94,3.08-3.87,4.58-5.85c25.23-33.26,25.32-36.6,1.78-70.3
	c5.73-4.18,8.84,0.95,12.32,3.73c24.15,19.34,48.39,38.58,72.13,58.41c5.31,4.44,8.76,11.11,13.07,16.75L7203.9,1057.94z"/>
<path d="M1692.98,7919.89c11.35,6.97,22.63,14.05,34.05,20.9c19.51,11.7,29.04,10.41,45.56-5.89c0.88-0.86,1.79-1.7,2.56-2.65
	c28.2-35.45,56.39-70.9,85.55-107.58c-9.52-11.8-17.64-21.86-25.76-31.92c0,0-0.8,0.82-0.8,0.82c10.85,5.37,21.69,10.75,34.2,16.95
	c5.59-5.59,12.12-11.04,17.36-17.53c20.98-26,40.74-53.04,62.55-78.3c16.75-19.41,23.72-39.33,13.19-63.65
	c-0.01,0.01-0.7,0.72-0.7,0.72c2.39,0.49,5.34,0.25,7.1,1.58c28.51,21.59,56.86,43.38,86.13,65.8c-3.74,2.44-5.9,4.69-6.73,4.27
	c-20.24-10.12-35.72-3.23-48.74,13.15c-4.62,5.82-9.41,11.51-14.02,17.34c-50.76,64.11-101.5,128.24-152.22,192.38
	c-4.61,5.83-9.36,11.58-13.55,17.7c-15.51,22.64-15.19,27.91,1.89,52.74c1.8,2.62,2.7,5.88,7.12,15.84
	c-21.74-17.53-37.74-30.46-53.77-43.36c-22.2-17.86-44.59-35.49-66.48-53.72c-5.38-4.48-9.14-10.92-13.66-16.44
	C1693.79,7919.05,1692.98,7919.89,1692.98,7919.89z"/>
<path d="M6653.31,686.38c1.22-0.06,2.7-0.6,3.62-0.11c37.43,19.87,75.13,39.33,107.62,67.14l1-0.89c-5.84-1.6-11.89-2.66-17.48-4.88
	c-17.73-7.04-30.95-0.85-41.5,13.5c-4.35,5.91-8.44,12.03-12.29,18.28c-18.6,30.25-37.22,60.49-55.5,90.94
	c-3.6,6-5.75,12.87-8.44,19.05c11.05,10.07,20.74,18.9,30.43,27.73c0,0,0.6-0.95,0.6-0.95c-12.4-4.69-24.8-9.38-37.57-14.21
	c-3.03,2.64-6.5,4.5-8.3,7.4c-21.55,34.67-43.48,69.13-64,104.41c-14.16,24.33-12.57,29.44,7.33,51.91
	c1.57,1.77,2.86,3.79,6.13,8.18c-4.88-0.8-8.01-0.49-10.17-1.79c-30.66-18.59-61.27-37.28-91.66-56.31
	c-3.86-2.41-6.45-6.86-9.62-10.36c0,0-0.8,0.88-0.8,0.88c6.14,0.33,12.3,0.51,18.43,1.02c12.31,1.01,21.58-4.33,28.61-13.87
	c5.13-6.96,10.01-14.13,14.52-21.5c44.58-72.79,89.06-145.65,133.57-218.48c1.29-2.11,2.48-4.3,3.96-6.28
	c15.01-20.02,15.72-40.54,2.29-61.61L6653.31,686.38z"/>
<path d="M934.5,7145.76c8.13,7.33,16.26,14.66,26.16,23.59c5.66-3.09,12.43-5.65,17.86-9.92
	c75.79-59.65,151.57-119.31,226.97-179.46c34.04-27.16,34.82-33.56,15.04-75.08c-0.36-0.75,0.54-2.11,0.85-3.18
	c17.85,15.57,70.47,81.56,87.89,110.22c-38.89-13.99-40.41-13.96-75.65,13.79c-71.89,56.61-143.58,113.46-215.3,170.29
	c-6.7,5.31-12.98,11.16-21.18,18.24c6.57,11.98,12.85,23.44,19.13,34.89l0.83-0.83c-3.19-1.28-7.5-1.65-9.38-3.98
	c-23.75-29.47-47.25-59.15-70.47-89.04c-1.9-2.45-1.3-6.85-1.85-10.34L934.5,7145.76z"/>
<path d="M1833.51,976.11c-2.69,5.42-5.38,10.85-8.88,17.91c2.8,4.61,5.5,10.04,9.07,14.82c57.16,76.33,114.27,152.69,171.74,228.79
	c28.4,37.6,34.06,38.73,77.19,20.07c0.79-0.34,2.07,0.46,6.39,1.56c-42.44,33.99-85.58,63.68-126.41,96.73
	c-6.88-7.31,0.6-8.98,2.54-11.88c2.71-4.07,6.74-7.23,9.88-11.04c10.76-13.02,11.64-26.82,2.74-41.17
	c-3.91-6.31-7.66-12.76-12.1-18.68c-57.94-77.29-115.97-154.51-174.07-231.68c-3.67-4.88-8.06-9.22-13.48-15.34
	c-10.93,6.3-21.33,12.3-31.74,18.3l0.89,0.86c0.85-3.34,0.58-8.16,2.73-9.81c25.47-19.56,51.26-38.7,77.13-57.72
	c1.68-1.24,4.75-0.6,7.17-0.84C1834.32,976.97,1833.51,976.11,1833.51,976.11z"/>
<path d="M7918.05,1758.1c6.13,5.82,13.23,10.9,18.22,17.57c21.32,28.49,47.13,53.66,63.58,85.75l0.81-0.79
	c-10.07-8.3-20.13-16.59-32.38-26.68c-6.15,3.97-13.43,7.88-19.83,12.92c-73.41,57.86-146.69,115.89-220,173.88
	c-1.93,1.53-3.87,3.04-5.75,4.63c-29.29,24.59-30.76,29.65-19.26,66.08l0.95-0.77c-4.21-1.64-9.93-2.06-12.39-5.11
	c-25.49-31.57-50.45-63.57-75.83-95.79c3.09-0.96,5.97-2.69,6.79-1.99c24.35,20.63,37.69,18.37,65.51-3.34
	c55.37-43.21,110.29-86.97,165.36-130.56c26.03-20.6,51.96-41.33,78.76-62.66c-4.89-12.13-9.29-23.03-13.7-33.94
	C7918.9,1757.3,7918.05,1758.1,7918.05,1758.1z"/>
<path d="M2659.12,8507.61c-30.84-7.43-47.52-15.5-64.73-31.27c-0.04,0.03-0.8,0.88-0.8,0.88c5.18-2.68,12.1-4.1,15.16-8.33
	c5.7-7.86,9.43-17.23,13.5-26.2c35.63-78.55,71.15-157.14,106.71-235.72c3.05-6.74,6.07-13.48,9.14-20.21
	c10.4-22.78,9.4-42.92-12.77-58.79c-2.44-1.75-3.04-6.08-4.49-9.22l-0.76,0.92c37.36,16.11,74.75,32.14,112.05,48.39
	c8.87,3.87,17.43,8.46,24.99,16.41c-7.49-1.7-14.96-3.47-22.47-5.07c-19.59-4.16-33.79,3.17-43.05,20.58
	c-4.06,7.63-8.1,15.3-11.68,23.16c-37.36,82.13-74.67,164.27-111.85,246.48c-5.55,12.28-12.55,24.34-9.69,38.79L2659.12,8507.61z"/>
<path d="M7156.26,7976.19c-1.21,4.35-1.13,9.93-3.88,12.79c-5.94,6.17-13.24,11.06-20.16,16.24c-7.78,5.82-15.77,11.37-25.26,18.19
	c-1.94-7.68-2.55-13.48-4.89-18.47c-2.58-5.52-6.55-10.45-10.25-15.38c-56.38-75.12-112.81-150.21-169.25-225.29
	c-2.97-3.95-5.9-7.95-9.17-11.65c-19.13-21.65-26.91-23.3-54.91-12.51c-3.91,1.51-7.53,6.7-14.01,0.7
	c33.7-25.43,67.03-50.7,100.56-75.73c3.82-2.85,8.7-4.27,13.08-6.36l-0.75-0.86c-1.32,4.49-1.58,9.74-4.15,13.33
	c-10.87,15.21-9.21,29.89,0.47,44.61c4.06,6.18,8.19,12.32,12.62,18.23c55.44,73.95,110.86,147.91,166.56,221.66
	c6.42,8.5,10.82,20.02,24.13,21.2C7157.11,7976.99,7156.26,7976.19,7156.26,7976.19z"/>
<path d="M713.87,2162.97c-26.13,33.9-26.12,71.07-11.72,108.91c5.64,14.81,13.79,29.41,23.79,41.68
	c46.01,56.45,103.86,95.05,175.84,109.94c63.27,13.09,111.81-8.72,145.39-63.41c4.3-7.01,5.28-16.98,15.49-19.36l-0.69-0.82
	c-23.55,64.47-66.45,108.35-133.89,126.3c-30.92,8.23-61.44,4.95-91.14-4.54c-46.79-14.95-87.04-40.69-118.73-78.64
	c-49.8-59.65-58.17-138.46-22.26-204c4.17-7.61,7.73-15.8,18.53-15.27L713.87,2162.97z"/>
<path d="M6787.21,768.28c40.4,15.51,76.36,59.34,78.98,98.61c2.06,30.78-11.3,55.34-36.31,72.8c-23.22,16.21-49.42,21.9-77.5,17.33
	c-11.96-1.95-23.79-4.72-35.14-7c-5.14,9.34,1.54,12.88,5.31,16.7c22.32,22.67,25.77,49.81,18.55,79.05
	c-5.03,20.35-11.59,40.32-17.34,60.5c-2.7,9.49-5.74,18.96-7.5,28.64c-3.91,21.45,4.01,32.61,25.46,36.42
	c4.73,0.84,9.73,0.12,15.57,3.77c-6.07,2.36-12.08,6.55-18.23,6.76c-23.71,0.81-43.42-9.4-58.28-27.12
	c-5.94-7.09-10.34-17.49-10.86-26.64c-0.75-13.24,1.29-27.07,4.6-40.03c5.49-21.5,13.2-42.42,19.43-63.75
	c3.46-11.82,6.44-23.85,8.53-35.97c3.64-21.17-3.1-38.83-19.68-52.77c-7.37-6.19-14.3-12.93-21.42-19.41c0,0-0.6,0.95-0.6,0.95
	c18.54,6,36.87,12.76,55.66,17.81c23.15,6.22,43.81-0.63,61.5-16.02c19.02-16.54,31.89-37.6,38.76-61.56
	c6.75-23.55,3.5-46.22-12.21-66.24c-5.94-7.58-11.13-15.74-16.66-23.64C6787.82,767.48,6787.21,768.28,6787.21,768.28z"/>
<path d="M2243.59,701.2c1.01-2.18,1.44-5.1,3.12-6.42c35.04-27.52,74.46-43.59,119.33-45.51c40.12-1.71,76.72,9.3,107.12,34.93
	c65.74,55.42,100.42,125.3,89.36,212.94c-6.59,52.22-34.95,91.85-78.48,120.72c-2.83,1.88-7.09,1.59-10.69,2.32
	c0,0,0.69,1.12,0.69,1.12c2.32-2.78,4.32-5.93,7.01-8.27c36.97-32.14,47.53-73.46,41.12-120.23c-9.2-67.1-39.78-123.71-86.71-171.72
	c-20.05-20.51-43.79-35.61-71.36-44.57c-35.02-11.39-67.88-7.17-99.2,11.81c-7.19,4.36-14.73,8.15-22.11,12.2
	C2242.8,700.52,2243.59,701.2,2243.59,701.2z"/>
<path d="M6460.96,7978.53c-6.01,6.05-11.92,12.2-18.06,18.12c-22.47,21.69-33.93,48.43-35.85,79.3
	c-1.31,21.12,0.45,41.92,6.01,62.58c16.19,60.13,45.45,112.4,92.39,153.71c32.88,28.94,70.69,45.35,115.78,39.28
	c8.58-1.16,17.2-2.09,25.8-3.13c-45.14,31.43-93.86,33.2-144.24,16.26c-12.71-4.28-25.53-10.26-36.19-18.28
	c-66.39-49.91-103.99-116.15-100.93-199.99C6368.09,8060.09,6400.16,8009.09,6460.96,7978.53z"/>
<path d="M6690.49,8303.46c1.58-5.84,1.83-12.54,4.96-17.38c23.19-35.8,24.45-75.12,16.16-114.61
	c-11.66-55.57-37.52-104.74-76.81-145.89c-13.51-14.15-29.54-26.39-45.96-37.14c-25.6-16.75-54.41-22.97-85.06-19.45
	c-9.82,1.13-19.65,2.1-29.48,3.14c59.13-36.84,120.53-37.57,177.11,0.38c75.05,50.35,111.75,123.89,104.25,215.22
	C6751.78,8234.95,6729.31,8274.51,6690.49,8303.46z"/>
<path d="M7880.9,6639.07c23.66-56.76,67.22-89.83,126.07-102.36c30.47-6.49,61.39-3.36,91.14,7.19
	c46.35,16.44,86.5,42.3,116.62,81.46c45.34,58.94,52.6,123.13,22.55,191.29c-1.41,3.19-4.36,5.71-6.6,8.54
	c-0.01,0,0.97,0.86,0.97,0.86c0.57-7.31-0.09-14.99,1.92-21.87c8.94-30.54,2.1-59.1-12.22-85.63
	c-9.26-17.15-21.19-33.43-34.47-47.71c-34.1-36.66-75.5-63.25-122.4-80.62c-14.88-5.51-30.72-9.42-46.46-11.4
	c-51.32-6.44-95.12,7.36-127.07,50.59c-2.7,3.65-7.26,5.93-10.94,8.88C7880.03,6638.3,7880.9,6639.07,7880.9,6639.07z"/>
<path d="M2473.35,1020.18c-14.15,19.6-36.62,24.04-57.53,30.07c-62.21,17.93-118,4.51-164.93-39.85
	c-46.79-44.23-74.55-99.1-77.79-163.74c-2.81-56.13,17.58-104.29,60.33-141.89c2.5-2.2,6.73-2.42,10.15-3.56
	c0,0-0.79-0.68-0.79-0.68c-3.69,7.6-7.04,15.39-11.14,22.76c-14.89,26.8-20.98,55.55-16.83,85.75
	c9.58,69.66,39.93,129.33,90.03,178.5c11.32,11.11,24.74,20.57,38.45,28.66c37.11,21.9,76.06,27.82,116.78,9.67
	c4.45-1.98,9.3-3.06,13.96-4.55L2473.35,1020.18z"/>
<path d="M4045.35,7271.69c26.37-0.42,54.12,21.81,61.86,49.55c6.66,23.86-3.72,47.42-28.05,62.37
	c-14.92,9.17-31.08,14.57-48.95,13.59c-13.73-0.76-23.73-7.6-28.22-20.14c-4.51-12.62-8.52-25.81-9.97-39.06
	C3988.13,7302.36,4013.05,7272.21,4045.35,7271.69z"/>
<path d="M4609.66,1623.23c5.4,1.78,17.94,3.88,28.32,9.78c20.82,11.84,33.36,29.9,29.42,55.19c-3.94,25.31-20.1,41.62-42.28,52.69
	c-1.08,0.54-2.37,0.69-3.57,0.96c-31.9,7-76.32-25.36-79.11-57.61C4539.64,1651.86,4568.04,1623.16,4609.66,1623.23z"/>
<path d="M4428.6,7640.39c-1.16,34.25-32.14,61.01-64.03,58.6c-20.71-1.56-38.08-10.44-51.03-27.02
	c-13.24-16.96-15.48-41.08-3.05-59.02c7.56-10.91,18.24-19.9,28.46-28.63c7.95-6.79,18.47-8.38,28.16-4.68
	c12.64,4.83,25.54,10.02,36.67,17.51C4420.03,7608.07,4428.78,7624.28,4428.6,7640.39z"/>
<path d="M4940.68,1913.19c21.47-0.01,32.72,5.85,37.85,20.63c3.21,9.26,6.01,18.67,8.82,28.07c4.05,13.51,2.43,27.03-1.96,39.91
	c-11.9,34.95-50.4,48.07-80.76,27.35c-20.3-13.85-34.63-32.86-32.5-58.35c2-24.01,17.95-40.03,39.61-49.19
	C4922.84,1916.94,4935.01,1914.79,4940.68,1913.19z"/>
<path d="M4339.1,7384.63c-1.5,3.66-3.38,12.36-8.12,19.02c-13.97,19.64-52.89,27.86-73.76,15.65c-4.68-2.74-10.04-9.36-10.01-14.17
	c0.08-14.52,0.51-29.7,4.76-43.39c6.86-22.12,30.74-33.92,53.08-29.17C4324.02,7336.61,4338.87,7357.23,4339.1,7384.63z"/>
<path d="M4731.88,1927.55c0,6.14,0.74,12.39-0.13,18.4c-3.71,25.62-27.7,44.33-52.47,41.4c-21.89-2.58-40.79-26.84-38.59-51.03
	c0.64-7,3.54-14.52,7.53-20.34c12.69-18.48,49.29-28.09,70.31-19.4C4729.04,1900.93,4732.21,1908.28,4731.88,1927.55z"/>
<path d="M3885.72,7557.83c-0.07,28.63-19.44,45.87-47.84,42.54c-15.33-1.8-28.24-8.38-38.12-20.26
	c-11.93-14.35-11.77-33.89,1.69-46.84c6.89-6.63,15.71-11.97,24.59-15.67C3859.4,7503.69,3885.8,7521.81,3885.72,7557.83z"/>
<path d="M5126.63,1789.66c-19.27,0.25-30.12-8.65-36.94-29.42c-5.97-18.18-2.38-34.37,10.85-47.51
	c12.47-12.39,28.05-14.72,44.34-8.02c7.87,3.23,16.12,6.61,22.64,11.85c19,15.28,18.44,41.64-0.4,57.54
	C5155.59,1783.84,5140.93,1789.48,5126.63,1789.66z"/>
<path d="M4913.37,1718.87c0.18,20.6-13.33,35.22-33.35,36.1c-20.31,0.89-33.29-13.89-34.21-38.97
	c-0.63-17.22,13.67-30.73,33.34-31.49C4899.21,1683.72,4913.18,1697.75,4913.37,1718.87z"/>
<path d="M4058.47,7592.2c0.21-20.18,14.6-34.76,34.57-35.02c20.28-0.26,32.77,14.71,33.11,39.68c0.23,17.14-14.7,30.64-34.11,30.86
	C4072.44,7627.93,4058.25,7612.92,4058.47,7592.2z"/>
<path d="M7924.52,2436.13c-17.19-20.41-26.66-44.01-29.3-70.49c-0.73-7.36-1.48-14.77-2.91-22.02
	c-2.86-14.47-4.29-15.33-22.27-18.18c-2.99-0.47-5.8-2.04-9.51-3.41c27.99-23.03,81.52-54.46,107.42-62.32
	c-4.1,5.97-6.11,9.78-8.93,12.83c-10.03,10.87-21.36,20.68-30.33,32.33c-24.61,32-29.06,66.96-13.14,104.51
	c3.7,8.73,11.86,16.44,8.21,27.52C7923.72,2436.96,7924.52,2436.13,7924.52,2436.13z"/>
<path d="M8214.33,6847.59c-2.98,6.51-4.78,13.97-9.14,19.37c-17.45,21.6-40.2,36.16-65.1,48.11c-19.54,9.38-19.9,13.78-7.76,34.21
	c1.65,2.78,2.82,5.85,4.21,8.78c-9.71,5.38-14.74-1.77-20.22-5.85c-25.27-18.83-55.4-31.16-82.65-60.53
	c15.41,3.75,23.72,4.94,31.43,7.79c51.55,19.02,94.46,4.35,131.81-33.02c6.06-6.06,12.26-11.98,18.39-17.97
	C8215.31,6848.49,8214.33,6847.59,8214.33,6847.59z"/>
<path d="M7265.81,7387.06c17.25-28.8,50.37-31.22,78.64-45.7c0-9.53,0-18.84,0-27.95c9.18-1.07,62.9,56.45,83.16,87.32
	c-4.8,5.85-8.7,1.09-12.49-1.31c-11.48-7.26-22.27-15.83-34.31-21.98c-34.23-17.5-68.65-18.96-102.42,1.85
	C7274.2,7381.87,7270.01,7384.47,7265.81,7387.06z"/>
<path d="M1018,6585.17c11.53,20.8,17.67,42.96,19.22,66.83c1.42,21.79,2.3,21.66,26.16,26.32c1.71,0.33,3,2.81,6.16,5.96
	c-33.05,22.47-66.9,42.25-101.09,61.44c-1.42-2.01-2.85-4.03-4.27-6.04c5.73-5.96,11.75-11.67,17.12-17.94
	c9.6-11.18,19.96-21.95,27.92-34.24c14.67-22.69,18.8-47.7,12.59-74.42c-2.15-9.27-2.23-19.03-3.17-28.66
	C1018.72,6584.33,1018,6585.17,1018,6585.17z"/>
<path d="M6943.84,8012.77c3.7,2.38,7.77,4.35,11.04,7.22c9.26,8.11,17.82,17.06,27.35,24.83c22.47,18.3,46.74,20.7,72.19,6.36
	c9.58-5.4,18.9-11.27,28.21-16.84c1.26,1.13,2.75,1.84,2.9,2.77c0.16,0.98-0.67,2.53-1.55,3.23
	c-23.19,18.35-46.36,36.71-69.74,54.79c-3.74,2.89-8.47,4.5-13.79,7.24c-20.51-28.66-40.43-56.5-60.35-84.34
	C6941.35,8016.27,6942.59,8014.52,6943.84,8012.77z"/>
<path d="M2675.39,8514.44c11.74,3.51,23.49,7.02,35.23,10.52c35.49,10.57,54.55,4.81,77.82-24.37c9.01-11.3,17.05-23.37,25.86-35.54
	c2.55,3.38,5.21,5.62,4.81,6.58c-12.73,30.59-25.75,61.05-39.59,93.56c-7.34-2.45-14.24-4.11-20.59-6.99
	c-22.44-10.17-44.84-20.44-66.91-31.38c-6.04-2.99-14.66-4.03-15.83-13.26C2676.16,8513.6,2675.39,8514.44,2675.39,8514.44z"/>
<path d="M1922.68,7622.13c-7.24-4.47-14.49-8.94-21.72-13.42c-9.41-5.84-18.5-12.26-28.26-17.44c-23.98-12.7-47.49-11.08-69.72,4.41
	c-11.87,8.27-23.23,17.28-35.31,26.32c-1.29-3.88-3.06-6.61-2.38-7.53c18.2-24.7,36.65-49.21,56.38-75.52
	c6.89,4.12,13.33,7.07,18.72,11.35c23.17,18.39,46.23,36.93,68.84,55.99c5.2,4.38,8.46,11.06,12.61,16.68L1922.68,7622.13z"/>
<path d="M7877.23,6658.5c-25.25,53.41-18.55,94.8,21.84,135.09c7.61,7.59,15.14,15.25,24.96,25.15
	c-22.94-2.7-65.41-26.98-106.76-59.19c1.01-8.27,6.81-4.41,10.9-4.02c21.21,2.02,23.25,0.24,25.56-20.24
	c2.22-19.66,4.39-39.35,7.82-58.82c1.47-8.32,5.27-16.86,16.29-17.37L7877.23,6658.5z"/>
<path d="M2577.3,8470.39c-36.35-7.77-67.72-27.03-103.2-41.69c14.86-31.2,28.47-59.9,42.33-88.47c0.88-1.81,3.76-2.64,5.86-4.03
	c1.02,1.78,3.07,3.68,2.86,5.29c-0.78,6.07-2,12.12-3.58,18.04c-15.19,56.91-0.55,78.17,41.62,100.42
	c5.04,2.66,8.93,7.48,13.35,11.3L2577.3,8470.39z"/>
<path d="M7918.9,1757.3c-8.52-6.77-17.38-13.15-25.49-20.39c-21.65-19.33-45.55-23.88-72.05-11.61
	c-14.44,6.68-28.57,14.03-42.94,21.12c-1.16-3.07-2.22-5.11-2.59-7.26c-0.13-0.74,1.32-1.92,2.24-2.67
	c24.83-20.35,49.69-40.66,74.47-60.93c18.99,13.99,48.94,51.81,65.49,82.55C7918.05,1758.1,7918.9,1757.3,7918.9,1757.3z"/>
<path d="M1646.3,1629.24c-2.29,3.83-3.69,9.65-7.03,11.14c-12.3,5.52-25.27,9.54-37.94,14.26c-15.45,5.76-16.76,8.39-14.91,27.73
	c0.22,2.28-0.37,4.64-0.59,6.96c-13.94-6.05-13.9-6.08-29.36-23.01c-9.99-10.95-20.28-21.63-30.09-32.73
	c-8.6-9.73-19.33-17.94-28.06-36c9.89,4.04,14.23,5.18,17.91,7.42c11.57,7.05,22.42,15.42,34.39,21.64
	c26.19,13.6,53.55,18.18,82.15,7.22c4.58-1.75,9.53-2.53,14.31-3.76C1647.07,1630.12,1646.3,1629.24,1646.3,1629.24z"/>
<path d="M1746.39,1044.49c-7.02,6.9-14.17,13.68-21.03,20.73c-20.17,20.74-25.06,44.52-13.48,71.25
	c6.24,14.39,12.81,28.64,19.16,42.8c-2.79,1.39-3.69,2.17-4.61,2.2c-1.12,0.03-2.72-0.2-3.32-0.95
	c-19.88-25.01-39.67-50.09-61.01-77.12c4.87-5.19,9.01-10.98,14.43-15.1c17.65-13.42,35.52-26.59,53.88-39.01
	c4.46-3.02,11.11-2.79,16.81-4C1747.28,1045.35,1746.39,1044.49,1746.39,1044.49z"/>
<path d="M1834.93,7792.74c-3.58-0.82-7.57-0.88-10.66-2.59c-23.68-13.06-44.94-8.56-64.86,8.1c-5.41,4.52-11.18,8.6-18.36,14.09
	c3.09-16.14,3.14-16.1,16.06-32.16c7.73-9.61,15.33-19.32,22.83-29.1c7.5-9.79,14.8-19.72,22.2-29.59
	c7.17-9.57,13.03-20.27,24.65-31.01c0.55,6.95,1.8,10.38,0.82,12.95c-2.18,5.72-5.45,11.03-8.31,16.49
	c-11.57,22.11-10.05,42.52,7.32,61.29c3.21,3.46,5.04,8.2,7.51,12.35C1834.13,7793.56,1834.93,7792.74,1834.93,7792.74z"/>
<path d="M3458.51,8579.15c-8.46,0.78-16.92,2.23-25.39,2.21c-20.6-0.03-34.47,10.25-45.23,26.86c-5.71,8.82-6.84,20.96-18.1,27.5
	c0.3-20.56,21.21-111.83,32.14-140.47c2.13,3.79,4.72,6.34,4.81,8.97c0.25,7.33-1.14,14.72-0.81,22.04
	c0.97,21.5,10.59,37.54,31.01,46c6.78,2.81,13.76,5.15,20.74,7.62C3457.77,8579.8,3458.51,8579.15,3458.51,8579.15z"/>
<path d="M7999.85,1861.43c25.11,20.16,42.22,46.79,62.13,73.82c-27.61,24.29-57.64,41.94-87.44,61.14c1.09-2.95,1.53-6.43,3.4-8.73
	c5.44-6.67,11.38-12.93,17.27-19.22c25.84-27.57,31.86-57.36,11.02-90.75c-3.07-4.92-3.79-11.3-5.59-17.03
	C8000.66,1860.63,7999.85,1861.43,7999.85,1861.43z"/>
<path d="M935.38,7144.94c-2.3-0.55-5.43-0.32-6.78-1.77c-21.74-23.27-41.84-47.86-60.94-75.47c28.29-21.19,55.43-41.53,82.34-61.69
	c7.08,6.43,2.14,9.95-0.66,13.41c-8.5,10.5-17.74,20.43-25.78,31.25c-15.48,20.82-16.54,43-4.41,65.88
	c5.15,9.72,10.21,19.48,15.33,29.22C934.5,7145.76,935.38,7144.94,935.38,7144.94z"/>
<path d="M3431.03,8383.08c-8.55-0.86-17.08-1.85-25.64-2.55c-31.75-2.61-54.36,11.3-69.23,38.8c-5.74,10.62-11.12,21.43-16.34,31.54
	c-2.57,0.13-4.08,0.66-4.89,0.13c-0.84-0.56-1.59-2.27-1.38-3.27c6.44-31.04,13-62.05,19.88-94.68c33.1,6,63.71,13.66,93.47,24.67
	c1.66,0.62,2.31,3.97,3.44,6.05L3431.03,8383.08z"/>
<path d="M1016.26,7249.13c6.53,5.5,13.36,10.69,19.54,16.56c23.44,22.26,49.44,25.39,77.91,10.93c9.86-5.01,19.44-10.59,29.41-15.38
	c2.86-1.38,6.62-0.89,16.53-1.97c-30.29,25.79-55.95,47.62-83.65,71.21c-22.84-23.06-41.01-48.8-58.59-74.99
	c-1.14-1.69-0.28-4.72-0.33-7.15C1017.09,7248.3,1016.26,7249.13,1016.26,7249.13z"/>
<path d="M1062.65,2340.72c0.42-8.5-0.69-17.42,1.52-25.42c10.59-38.39-1.89-70.07-27.14-98.22c-8.83-9.84-18.45-18.97-28.25-28.98
	c4.32-2.02,6.99-4.32,8.27-3.71c29.92,14.24,78.82,46.34,94.74,62.07c-10.93,0.97-21.14,1.88-32.07,2.85
	c-9.87,30.4-0.67,63.23-17.83,90.53C1061.96,2339.91,1062.65,2340.72,1062.65,2340.72z"/>
<path d="M7040.62,1407.88c8.05,2.65,16.32,4.78,24.12,8.05c22.53,9.43,43.38,5.55,62.7-7.92c11.98-8.35,23.15-17.87,34.55-26.76
	c6.96,3.56,4.25,7.95,1.5,11.58c-17.77,23.43-35.73,46.71-53.61,70.01c-23.61-9.7-52.72-33.38-68.56-55.71L7040.62,1407.88z"/>
<path d="M1864.93,954.81c-0.01-1.23-0.55-3.03,0.06-3.6c8.8-8.25,17.26-17,26.81-24.3c11.41-8.72,21.53-19.71,37.44-25.1
	c20.01,28.08,39.58,55.56,59,82.81c-6.84,7.06-10.21,1.68-13.47-1.13c-8.35-7.19-16.09-15.11-24.52-22.2
	c-20.4-17.15-43.01-22.45-68.46-12.14c-5.59,2.26-11.67,3.31-17.53,4.92C1864.26,954.07,1864.93,954.81,1864.93,954.81z"/>
<path d="M7193.37,1197.45c-28.74,37.25-57.47,74.49-86.21,111.74c-1.45-0.68-2.89-1.36-4.34-2.04c0.8-4.06,0.87-8.45,2.53-12.12
	c16.47-36.51,16.58-38.73,1.07-75.54C7143.92,1223.4,7143.92,1223.4,7193.37,1197.45z"/>
<path d="M7189.24,7956.43c6.34-7.5,12.64-15.03,19.02-22.49c15.97-18.71,19.34-39.85,10.95-62.57
	c-4.27-11.57-10.32-22.48-15.49-33.73c-2.44-5.31-7.8-10.15-1.64-19.07c21.87,27.21,43.22,53.77,66.17,82.32
	c-4.98,4.86-9.44,10.23-14.86,14.32c-15.82,11.94-31.79,23.71-48.21,34.8c-4.69,3.17-11.11,3.77-16.74,5.55L7189.24,7956.43z"/>
<path d="M764.15,2108.22c1.15-8.87,8.9-10.93,15.09-14.51c9.45-5.47,21.3-7.49,27.76-20.85c-4.18-8.21-9-17.66-13.83-27.15
	c2.38-0.98,5.3-3.12,6.27-2.44c30.15,20.9,63.93,36.56,90.55,62.51c0.37,0.36-0.64,2.14-1.06,3.42c-7.7,5.11-14.18-1.05-20.42-3.37
	c-30.21-11.24-60.16-12.83-90.54-0.92c-4.48,1.76-9.64,1.77-14.51,2.57C763.45,2107.47,764.15,2108.22,764.15,2108.22z"/>
<path d="M8245.33,2203.62c18.69,15.02,23.3,36.9,28.16,58.54c1.07,4.77,0.54,9.88,0.94,14.81c2.25,27.96,2.27,27.95,30.84,34.99
	c-0.83,2.21-1,5.49-2.59,6.45c-26.35,15.95-52.88,31.6-78.72,46.93c-7.33-5.23-4.7-8.97-1.12-12.85c7.54-8.18,15.8-15.85,22.29-24.8
	c22.91-31.55,28.42-65.1,10.12-101.08c-3.82-7.52-6.14-15.8-9.14-23.75C8246.12,2202.85,8245.33,2203.62,8245.33,2203.62z"/>
<path d="M7515.31,7687.9c-17.36,22.35-49.07,15.54-68.78,34.35c0.48,8.44,0.94,16.61,1.42,25c-3.59-0.33-6.67,0.33-7.77-0.85
	c-20.14-21.75-40.09-43.68-59.9-65.74c-1.41-1.57-1.37-4.43-2-6.7c4.48-5.01,8.55-1.84,12.67,0.62
	c8.48,5.05,16.63,10.81,25.52,14.98c26.95,12.67,54.44,14.51,82.5,2.96C7503.97,7690.47,7508.33,7684.41,7515.31,7687.9z"/>
<path d="M669.57,6762.47c-7.25-1.45-9.56-6.83-10.54-13.27c-2.39-15.78-4.78-31.56-7.45-49.22c-8.92-2.38-17.86-4.77-26.75-7.14
	c0.16-8.95,57.69-43.47,86.34-51.46c-0.7,11.78-10.73,16.1-16.6,22.79c-25.22,28.77-37.12,60.66-25.52,98.94
	C668.93,6763.25,669.57,6762.47,669.57,6762.47z"/>
<path d="M7272.41,1108.92c20.64,15.1,41.29,30.2,63.48,46.43c-7.38,16.26-20.34,25.76-29.85,37.73
	c-8.97,11.29-18.55,22.09-31.9,31.01c0.97-4.08,1.37-8.41,3.01-12.2c4.37-10.1,9.9-19.73,13.81-29.99
	c6.51-17.07,4.67-33.42-5.48-49.06c-4.98-7.68-15.79-12.82-12.21-24.8C7273.27,1108.04,7272.41,1108.92,7272.41,1108.92z"/>
<path d="M1442.38,1306.02c0.77-7.93,7.41-8.44,13.01-10.5c28.66-10.54,28.65-10.58,28.81-39.65c20.83,15.67,52.51,50.25,67.69,73.91
	c-8.4,5.96-13.54-1.47-19.07-5.14c-27.88-18.51-57.89-26.21-91.14-19.31C1441.62,1305.26,1442.38,1306.02,1442.38,1306.02z"/>
<path d="M1655.16,7890c-11.31-7.22-22.95-13.99-33.84-21.8c-8.78-6.3-16.66-13.85-23.39-19.54c0-4.15-0.52-5.81,0.08-6.54
	c17.28-20.97,34.65-41.87,52.12-62.68c0.56-0.67,2.35-0.32,3.63-0.45c5.61,4.33,1.48,8.8-0.29,12.78
	c-4.02,9.03-9.21,17.56-12.84,26.72c-7.24,18.26-7.02,36.01,4.71,52.96c3.99,5.77,6.12,12.83,9.11,19.3
	C1654.44,7890.74,1655.16,7890,1655.16,7890z"/>
<path d="M5150.88,1999.64c-0.28,13.1-8.45,23.7-17.94,23.29c-8.21-0.35-15.94-11.38-15.21-21.7c0.76-10.71,9.1-19.3,18.2-18.76
	C5144.77,1983,5151.09,1990.26,5150.88,1999.64z"/>
<path d="M3863.85,7300.2c0.02,9.38-3.39,17.63-12.34,20.06c-4.66,1.26-11.86-1.71-16.07-5.07c-8.07-6.44-5.73-15.08-1.61-23.14
	c3.54-6.94,8.53-11.87,17.02-10.98C3858.7,7281.9,3863.83,7289.86,3863.85,7300.2z"/>
<path d="M5310.15,1836.46c-6.73,0.46-14.8-8.43-15.75-17.35c-1.33-12.46,6.76-23.4,17.21-23.27c8.83,0.12,16.16,7.5,16.18,16.3
	C5327.82,1824.32,5319.48,1835.82,5310.15,1836.46z"/>
<path d="M3663.99,7503.79c-5.44-5.47-11.9-9.42-14.19-15.06c-1.95-4.8-0.25-12.04,1.94-17.33c2.81-6.81,8.76-12.92,16.74-9.89
	c4.75,1.81,10.2,7.54,11.11,12.31c1.23,6.47-0.53,14.13-3.07,20.45C3675.08,7497.86,3669.51,7499.79,3663.99,7503.79z"/>
<path d="M714.48,2163.77c-0.6-2.27-2.38-5.08-1.63-6.73c10.52-23.1,24.25-43.01,51.28-48.82c0.02,0.01-0.69-0.74-0.67-0.73
	c-7.66,7.31-15.87,14.14-22.9,22.02c-9.47,10.62-18.03,22.04-26.84,33.3C713.87,2162.97,714.48,2163.77,714.48,2163.77z"/>
<path d="M1654.44,7890.74c17.96,2.95,28.97,15.08,38.53,29.15c0.01-0.01,0.82-0.85,0.84-0.86c-17.18-3.95-28.99-15.05-38.62-29.06
	C1655.16,7890,1654.44,7890.74,1654.44,7890.74z"/>
<path d="M1921.85,7622.97c18.08,2.68,29.54,14.28,38.88,28.78c0.01-0.01,0.69-0.73,0.71-0.73c-17.58-3.37-28.14-16.14-38.73-28.9
	C1922.68,7622.13,1921.85,7622.97,1921.85,7622.97z"/>
<path d="M3698.49,7307.04c-2.72,3.1-4.38,6.37-7.02,7.69c-4.14,2.07-9.12-3.05-7.38-7.9c1-2.8,4.26-6.54,6.6-6.61
	C3693.01,7300.15,3695.43,7304.18,3698.49,7307.04z"/>
<path d="M7273.27,1108.04c-13.28,4.01-18.73-6.05-26.19-14.15c7.97-4.88,10.7,2.78,14.87,5.32c3.97,2.42,6.94,6.48,10.41,9.77
	C7272.41,1108.92,7273.27,1108.04,7273.27,1108.04z"/>
<path d="M7203.19,1058.7c11.8-0.16,18.25,7.16,23.03,16.76c-9.56-3.05-18.24-7.3-22.31-17.53
	C7203.9,1057.94,7203.19,1058.7,7203.19,1058.7z"/>
<path d="M7041.31,1407.13c-11.98,0.54-18.47-6.8-29.13-22.4c15.5,8.8,24.2,13,28.42,23.16
	C7040.62,1407.88,7041.31,1407.13,7041.31,1407.13z"/>
<path d="M7188.44,7955.56c-5.8,14.42-14.77,23.97-32.08,20.72c-0.1-0.09,0.75,0.72,0.64,0.6c10.68-6.88,21.47-13.65,32.26-20.43
	C7189.24,7956.43,7188.44,7955.56,7188.44,7955.56z"/>
<path d="M1864.26,954.07c-7.15,11.67-18.03,18.14-30.75,22.03c0,0.01,0.81,0.86,0.81,0.87c5.95-13.24,15.49-21.55,30.6-22.17
	C1864.93,954.81,1864.26,954.07,1864.26,954.07z"/>
<path d="M5290.84,1999.03c-2.14-4.4-4.87-7.4-4.4-9.76c0.48-2.39,4.11-4.15,6.37-6.19c1.75,2.48,5.02,5.07,4.85,7.4
	C5297.47,1992.98,5294.05,1995.25,5290.84,1999.03z"/>
<path d="M6958.12,7658.71c3.49-4.18,6.98-8.36,12.32-14.76c0.47,13.28-4.41,15.95-13.06,13.93
	C6957.36,7657.85,6958.12,7658.71,6958.12,7658.71z"/>
<path d="M1647.07,1630.12c4.51-3.88,9.03-7.76,14.58-12.53c0.4,13.96-6.38,14.49-15.3,11.7
	C1646.3,1629.24,1647.07,1630.12,1647.07,1630.12z"/>
<path d="M6660.32,8321.98c6.79-9.29,15.27-15.66,27.37-15.66C6678.57,8311.54,6669.45,8316.76,6660.32,8321.98z"/>
<path d="M3430.32,8383.76c11.44-3.59,22.76-6.79,29.18,7.98l0.68-0.62c-9.66-2.74-19.32-5.48-29.07-8.13
	C3431.03,8383.08,3430.32,8383.76,3430.32,8383.76z"/>
<path d="M3459.5,8391.75c12.12-5.83,23.66-3,35.11,2.27c0.08-0.08,0.8-0.78,0.88-0.86c-12.03,5.39-23.55,1.39-35.21-2.13
	C3460.18,8391.13,3459.5,8391.75,3459.5,8391.75z"/>
<path d="M8215.31,6848.49c3.23-9.1,6.3-18.3,16.34-22.45c0.02,0-0.97-0.86-0.96-0.86c-2.37,9.71-5.45,18.91-16.34,22.42
	C8214.33,6847.59,8215.31,6848.49,8215.31,6848.49z"/>
<path d="M1423.89,1310.47c-3.8,4.2-7.6,8.39-13.36,14.76c-0.04-13.48,7.38-13.26,14.17-13.85L1423.89,1310.47z"/>
<path d="M6764.56,753.4c10.24,0.86,19.15,3.75,22.66,14.88c0,0,0.61-0.8,0.61-0.8c-10.36-0.61-17.51-6.01-22.27-14.96L6764.56,753.4
	z"/>
<path d="M6654.08,685.57c-2.34-0.21-5.01,0.19-6.91-0.84c-1.41-0.77-1.82-3.39-2.67-5.19c2.21,0.18,5-0.39,6.46,0.75
	c1.47,1.15,1.62,3.99,2.35,6.09C6653.31,686.38,6654.08,685.57,6654.08,685.57z"/>
<path d="M7703.45,2091.46c2,2.65,4.11,5.21,5.91,7.99c0.41,0.63-0.3,1.98-0.5,3c-1.72-0.7-4.77-1.2-4.9-2.12
	c-0.45-3.1,0.15-6.36,0.39-9.59C7704.4,2090.69,7703.45,2091.46,7703.45,2091.46z"/>
<path d="M2720.84,8118.77c-2.06,0.49-4.22,1.56-6.15,1.24c-0.97-0.16-1.53-2.83-2.28-4.36c1.05-0.12,2.46-0.73,3.09-0.27
	c1.68,1.22,3.03,2.9,4.55,4.35C2720.09,8119.69,2720.84,8118.77,2720.84,8118.77z"/>
<path d="M7877.85,6659.09c-4.28-7.48-5.7-14.52,3.08-19.99c-0.02-0.03-0.89-0.79-0.91-0.82c-1.05,6.59-2.09,13.21-2.95,20.03
	C7877.23,6658.5,7877.85,6659.09,7877.85,6659.09z"/>
<path d="M6475.94,7971.12c-5.49,2.82-10.98,5.64-16.47,8.46C6464.96,7976.76,6470.45,7973.94,6475.94,7971.12z"/>
<path d="M6453.51,1005.41c-2.19-0.28-4.38-0.55-6.57-0.83c0.87-1.2,1.74-2.4,2.61-3.61c1.05,1.77,2.1,3.55,3.16,5.32
	C6452.71,1006.29,6453.51,1005.41,6453.51,1005.41z"/>
<path d="M676.96,6800.29c-1.03-6.23-2.06-12.46-3.1-18.69l-0.89,0.82c10.15,4.16,7.97,10.88,3.57,18.19
	C676.38,6800.76,676.96,6800.29,676.96,6800.29z"/>
<path d="M1424.69,1311.38c3.92-8.04,10.3-8.15,17.62-5.42c0.06,0.06-0.7-0.7-0.63-0.63c-5.87,1.77-11.82,3.46-17.78,5.15
	C1423.89,1310.47,1424.69,1311.38,1424.69,1311.38z"/>
<path d="M2658.39,8508.43c6.74-1.02,12.84-0.28,16.97,6.04c0.03-0.03,0.8-0.88,0.83-0.91c-6.96,1.74-13.14,1.16-17.05-5.98
	C2659.12,8507.61,2658.39,8508.43,2658.39,8508.43z"/>
<path d="M673.86,6781.59c-7.7-4.82-7.17-11.6-4.4-19.01c0.1-0.12-0.54,0.66-0.42,0.52c1.4,6.32,2.69,12.79,3.95,19.28
	C672.98,6782.41,673.86,6781.59,673.86,6781.59z"/>
<path d="M6645.37,8329.4c5.49-2.82,10.98-5.64,16.47-8.46C6656.35,8323.75,6650.86,8326.57,6645.37,8329.4z"/>
<path d="M2576.54,8471.24c6.75-1.04,12.86-0.28,17.02,6.01c0.03-0.03,0.8-0.88,0.84-0.91c-6.97,1.74-13.17,1.2-17.08-5.97
	C2577.3,8470.39,2576.54,8471.24,2576.54,8471.24z"/>
<path class="st0" d="M6176.94,4338.55c-3.95-51.92-7.78-101.29-11.43-150.67c-2.83-38.33-4.65-76.66,2.01-114.84
	c0.64-3.66,0.83-7.4,1.57-11.03c6.61-32.37,15.58-39.56,48.37-35.98c20.87,2.28,41.42,7.54,62.29,9.58
	c19.58,1.91,39.45,2.47,59.1,1.6c33.37-1.47,66.67-4.52,100-6.89c3.7-0.26,7.42-0.6,11.12-0.54c26.92,0.43,35.55,10.29,30.8,37.47
	c-2.75,15.78-6.21,31.78-12.05,46.61c-19.95,50.64-40.61,101.02-61.98,151.09c-14.59,34.19-31.9,67.13-54.22,97.04
	c-32.29,43.27-77.9,67.77-126.31,87.89c-11.87,4.93-22.65-0.01-29.05-10.2c-5.8-9.23-10.31-19.77-13.05-30.34
	C6177.9,4385.39,6172.59,4361.1,6176.94,4338.55z"/>
<path class="st0" d="M8072.63,4498.56c6.97,14.07,12.78,24.78,17.7,35.89c33.82,76.29,55.3,156.45,72.98,237.67
	c14.49,66.58,27.1,133.57,41.58,200.16c3.17,14.59,2.19,25.73-7.45,37.75c-7.56,9.43-11.39,21.84-16.99,32.87
	c-10.73,21.12-23.47,40.74-41.02,57.03c-18.56,17.22-39.37,20.42-61.6,9.32c-10.91-5.45-21.44-12.56-30.36-20.84
	c-8.97-8.32-17.14-18.22-23.21-28.83c-41.09-71.73-61.82-148.16-51.9-231.53c6.77-56.85,20.37-112.12,37.32-166.62
	c13.25-42.59,27.38-84.9,41.18-127.31C8054.66,4522.46,8057.6,4510.27,8072.63,4498.56z"/>
<path class="st0" d="M7393.89,4173.77c6.26,14.67,4.02,29.48,2.37,43.78c-11.12,96.28-33.52,189.74-71.14,279.29
	c-14.9,35.45-32.49,69.41-55.92,100.08c-13.6,17.8-29.01,33.78-48.16,45.72c-21.87,13.64-44.54,13.86-67.02,2.26
	c-17.85-9.22-28.09-23.87-26.6-44.93c2.53-35.82,5.3-71.87,17.54-105.8c28.25-78.32,65.49-152.1,116.44-218.38
	c26.54-34.53,56.54-65.59,94.25-88.17C7367.04,4180.79,7378.1,4172.12,7393.89,4173.77z"/>
<path class="st0" d="M7005.72,3847.85c-12.36-23-13.84-46.58-10.52-69.82c11.52-80.8,22.01-161.92,46.21-240.21
	c7.63-24.69,17.84-48.81,29.35-71.96c6.42-12.92,16.51-24.94,27.48-34.46c20.93-18.17,44.31-15,61.68,6.3
	c3.88,4.75,7.48,10,9.97,15.58c21.79,48.67,32.29,98.37,15.03,151.17c-21.76,66.54-53.42,127.68-97.22,182.35
	c-17.12,21.37-36.45,40.56-60.67,53.9C7020.83,3844.1,7013.43,3845.33,7005.72,3847.85z"/>
<path class="st0" d="M6359.56,3983.45c-44.09,1.18-80.33-13.45-111.9-39.18c-23.32-19.01-21.08-33.99-12.76-52.23
	c21.13-46.38,45.01-91.15,78.15-130.09c12.71-14.94,27.97-27.92,43.2-40.4c7.43-6.09,17.14-9.91,26.39-13.13
	c15.53-5.41,29.85-2.53,39.38,11.8c16.37,24.64,33.22,49.08,25.92,81.78c-1.76,7.87,1.34,17.1,3.26,25.46
	c6.38,27.73,13.32,55.33,19.88,83.02c1.71,7.21,3.39,14.5,4.15,21.86c2.19,21.35-2.3,29.04-23.17,36.12
	C6421.33,3978.89,6389.18,3981.33,6359.56,3983.45z"/>
<path class="st0" d="M7952.21,3682.83c-6.17-10.32-9.84-15.25-12.28-20.74c-12.07-27.12-23.43-54.55-35.78-81.54
	c-13.28-29.03-9.84-57.95-0.5-86.81c2.22-6.87,6.35-13.54,11.01-19.13c18.36-22.06,46.19-20.82,62.19,2.9
	c14.14,20.95,22.1,44.58,22.85,69.69C8001.15,3596.01,7983.66,3638.6,7952.21,3682.83z"/>
<path class="st0" d="M2619.28,4313.21c11.6,4.89,11.49,13.98,11.35,22.56c-0.61,39.67,0.15,79.46-2.72,118.97
	c-5.2,71.67-11.16,143.35-19.53,214.71c-9.38,80.01-23.71,159.31-44.42,237.28c-9.24,34.8-21.17,68.68-37.61,100.81
	c-13.63,26.65-30.11,51.32-51.97,72.03c-33.78,32-73.88,48.79-120.46,50.89c-25.68,1.16-49.36-4.72-70.93-18.01
	c-49.8-30.69-83.04-73.62-94.26-131.98c-11.15-58.03-8.67-116.05,2.79-173.61c6.38-32.07,21.36-59.7,44.69-83.99
	c79.05-82.35,151.77-170.3,220.89-261.04c42.59-55.91,92.07-103.62,150.26-142.58C2611.33,4316.59,2615.93,4314.88,2619.28,4313.21z
	"/>
<path class="st0" d="M901.35,4154.36c5.18,14.56,9.84,23.37,11.35,32.69c4.55,28.1,8.6,56.32,11.56,84.62
	c17.4,166.52,11.31,331.6-33.81,493.74c-9.59,34.46-22.94,67.98-36.13,101.3c-6.79,17.15-16.11,33.52-25.92,49.21
	c-38.52,61.6-109.43,89.55-179.86,71.03c-36.89-9.7-63.38-32.56-79.95-66.89c-14.82-30.71-20.12-63.5-21.32-97.24
	c-3.04-85.65,14.22-167.46,46.74-246.3c25.61-62.08,58.69-120.11,96.35-175.6c55.14-81.23,119.23-155.12,186.02-226.77
	C881.99,4168.15,889.37,4163.76,901.35,4154.36z"/>
<path class="st0" d="M866.04,3523.55c-3.25-3.83-5.78-5.42-6.03-7.31c-6.38-47.74-11.92-95.6-18.9-143.25
	c-5.83-39.78-2.24-79.07,4.32-118.15c2.42-14.41,7.67-28.8,14.12-41.98c29.52-60.36,104.78-48.59,130.67-6.16
	c11.19,18.35,16.52,38.47,18.82,59.59c4.28,39.29-3.64,76.21-21.29,111.34c-21.93,43.63-52.12,80.98-86.95,114.77
	C889.63,3503.22,877.63,3513.2,866.04,3523.55z"/>
<path class="st0" d="M4093,3677.96c-4.86,0-9.12,1.3-11.82-0.2c-26.02-14.55-49.68-32.15-69.41-54.8
	c-19.07-21.9-25.8-47.24-22.46-75.7c1.92-16.33,7.96-25.05,19.7-28.14c13.63-3.59,24.16,1.62,32.73,11.84
	c3.96,4.72,7.79,9.61,11.08,14.81c22.86,36.04,36.23,75.53,41.72,117.72C4095.14,3668.09,4093.58,3672.97,4093,3677.96z"/>
<path class="st0" d="M2629.8,5949.3c0-30.99-0.04-61.99,0.01-92.98c0.07-40.38,18.61-71.74,50.06-94.85
	c49.25-36.19,111.63-19.47,136.23,36.32c7.4,16.78,12.15,35.2,15.17,53.36c7.77,46.76,7.62,93.8,0.56,140.75
	c-3.52,23.44-9.46,46.11-21.23,66.9c-17.24,30.47-43.03,46.75-78.39,48.02c-30.71,1.1-58.75-6.15-84.51-23.1
	c-12.54-8.25-18.38-18.71-18.07-34.02c0.68-33.46,0.21-66.94,0.21-100.41C2629.83,5949.3,2629.82,5949.3,2629.8,5949.3z"/>
<path class="st0" d="M4724.33,5892.26c1.27,9.56,2.66,15.35,2.7,21.16c0.22,32.24-0.7,64.51,0.43,96.71
	c0.67,19.15-6.99,33.19-19.75,46.04c-23.02,23.17-49.94,36.34-83.24,33.48c-32.18-2.75-52.31-21.5-57.07-53.58
	c-4.49-30.3,3.73-56.94,27.12-77.07c11.12-9.57,24.09-17.51,37.3-24.03C4660.62,5920.77,4690.11,5907.95,4724.33,5892.26z"/>
<path class="st0" d="M5735.89,5896.4c0.8,4.01,2.45,8.54,2.48,13.07c0.25,34.72-0.21,69.45,0.39,104.16
	c0.25,14.68-4.94,26.24-14.45,36.89c-23.58,26.41-51.82,42.06-88.18,39.14c-32.19-2.58-52.45-21.31-57.32-53.35
	c-4.6-30.28,3.64-56.94,26.93-77.15c11.08-9.61,24.1-17.48,37.26-24.1c27.62-13.91,55.89-26.54,84-39.45
	C5728.87,5894.75,5731.69,5895.96,5735.89,5896.4z"/>
<path class="st0" d="M2285.99,8096.79c4.33,5.8,8.66,11.59,14.35,19.22c-2.89,5.71-5.71,12.32-9.4,18.41
	c-19.17,31.67-38.14,63.48-57.99,94.73c-22.37,35.2-37.65,38.22-72.5,14.6c-60.16-40.77-65.63-86.43-21.96-144.06
	c24.29-32.06,53.63-40.15,91.75-26.73c11.55,4.07,22.33,10.28,33.55,15.29c7.76,3.47,15.69,6.58,23.51,9.83
	C2287.27,8098.06,2285.99,8096.79,2285.99,8096.79z"/>
<path class="st0" d="M3830.54,8698.3c1.44-34.88,5.06-69.38,15.52-102.69c4.79-15.26,10.63-30.52,18.36-44.46
	c19.29-34.8,49.68-55.5,89.02-59.47c25.67-2.59,51.97-1.88,77.75,0.25c27.03,2.23,37.13,14.39,35.38,41.95
	c-2.12,33.33-6.57,66.53-10.42,99.74c-6.41,55.36-13.03,110.69-19.79,166c-1.5,12.26-3.03,24.65-6.12,36.57
	c-5.19,20.02-17.04,30.09-37.78,27.99c-38.26-3.87-75.98-11.18-108.54-33.99c-29.15-20.41-44.6-49.31-49.84-83.75
	C3831.67,8730.57,3831.65,8714.35,3830.54,8698.3z"/>
<path class="st0" d="M4938.49,517.4c-15.82-2.29-31.97-3.29-47.39-7.18c-23.31-5.88-30.51-16.24-29.22-40.19
	c0.87-16.04,3.58-31.99,5.5-47.97c9.28-77.48,18.08-155.03,28.06-232.43c5.93-45.98,15.18-52.91,60.24-47.68
	c24.66,2.87,48.53,9.52,70.98,20.5c35.68,17.45,58.52,45.47,66.41,84.4c13.75,67.77,3.96,133.43-23.06,196.16
	c-19.46,45.19-57.93,65.99-105.3,71.69c-8.54,1.03-17.31,0.15-25.98,0.15C4938.66,515.71,4938.58,516.56,4938.49,517.4z"/>
<path class="st0" d="M1371.51,7543.98c5.58-29.53,45.45-126.12,63.61-155.96c23.46,12.96,76.66,66.2,91.92,92
	C1505.95,7494.85,1414.24,7532.86,1371.51,7543.98z"/>
<path class="st0" d="M7493.91,1621.48c-35.82-33.41-65.45-64.25-96.99-96.82c8.66-5.38,13.34-9.32,18.74-11.46
	c44.73-17.76,89.57-35.24,134.48-52.54c1.7-0.65,4.4,1.29,8.95,2.79c-1.41,5.35-2.2,11.14-4.4,16.32
	C7535.42,1524.98,7518.06,1571.07,7493.91,1621.48z"/>
<path class="st0" d="M4452.22,8666.64c31.21-5.66,100.13-6.03,128.81-0.48c-0.52,4.67,0,9.86-1.73,14.14
	c-18.47,45.64-37.26,91.15-56.21,136.59c-0.73,1.74-4.02,2.41-7.9,4.57c-2.94-4.91-6.55-9.59-8.78-14.86
	c-18.71-44.22-37.21-88.53-55.53-132.91C4450.12,8671.85,4451.72,8669.02,4452.22,8666.64z"/>
<path class="st0" d="M4348.27,338.71c6.5-32.04,45.61-129.04,62.62-156.38c2.73,2.27,6.61,3.94,7.87,6.77
	c20.97,47.3,41.61,94.75,61.78,140.91c-2.89,4.04-3.94,7.24-5.65,7.65C4447.04,344.3,4379.66,344.93,4348.27,338.71z"/>
<path class="st0" d="M6765.55,752.52c4.77,8.95,11.91,14.35,22.27,14.96c5.53,7.9,10.72,16.07,16.66,23.64
	c15.71,20.02,18.96,42.68,12.21,66.24c-6.87,23.96-19.73,45.03-38.76,61.56c-17.7,15.39-38.36,22.24-61.5,16.02
	c-18.79-5.05-37.12-11.81-55.66-17.81c-9.69-8.83-19.38-17.66-30.43-27.73c2.69-6.18,4.84-13.05,8.44-19.05
	c18.28-30.44,36.89-60.69,55.5-90.94c3.84-6.25,7.94-12.37,12.29-18.28c10.55-14.35,23.78-20.54,41.5-13.5
	C6753.66,749.86,6759.71,750.92,6765.55,752.52z"/>
<path class="st0" d="M2474.05,1021.3c-4.66,1.5-9.51,2.57-13.96,4.55c-40.73,18.15-79.67,12.23-116.78-9.67
	c-13.71-8.09-27.13-17.55-38.45-28.66c-50.1-49.17-80.45-108.84-90.03-178.5c-4.15-30.2,1.94-58.95,16.83-85.75
	c4.1-7.37,7.45-15.16,11.14-22.76c7.38-4.05,14.92-7.84,22.11-12.2c31.31-18.99,64.17-23.2,99.2-11.81
	c27.57,8.97,51.32,24.06,71.36,44.57c46.93,48.01,77.51,104.62,86.71,171.72c6.41,46.77-4.15,88.09-41.12,120.23
	C2478.36,1015.38,2476.37,1018.53,2474.05,1021.3z"/>
</svg>
