<?xml version="1.0" encoding="UTF-8"?>
<svg id="Layer_1" data-name="Layer 1" xmlns="http://www.w3.org/2000/svg" viewBox="0 0 1035.37 1080">
  <defs>
    <style>
      .cls-1 {
        stroke-width: 6px;
      }

      .cls-1, .cls-2 {
        fill: none;
        stroke: #000;
        stroke-linecap: round;
        stroke-miterlimit: 10;
      }

      .cls-2 {
        stroke-width: 15px;
      }
    </style>
  </defs>
  <path class="cls-1" d="m916.23,724.51c-78.3,140.81-226,231.49-398.54,231.49-253.31,0-458.67-205.35-458.67-458.67S181.35,45.74,434.67,45.74"/>
  <line class="cls-2" x1="403.56" y1="241.33" x2="362.67" y2="314.22"/>
  <line class="cls-2" x1="600.89" y1="442.22" x2="549.01" y2="504.75"/>
  <line class="cls-2" x1="643.06" y1="600.74" x2="599.61" y2="525.49"/>
  <line class="cls-2" x1="684.44" y1="552.44" x2="744" y2="540"/>
  <line class="cls-2" x1="394.49" y1="645.96" x2="450.99" y2="685.01"/>
  <line class="cls-2" x1="741.86" y1="699.12" x2="667.92" y2="656.44"/>
  <line class="cls-2" x1="499.13" y1="625.32" x2="524.81" y2="703.03"/>
  <line class="cls-2" x1="503.32" y1="751.78" x2="535.18" y2="801.59"/>
  <line class="cls-2" x1="517.69" y1="582.57" x2="422.88" y2="565.82"/>
  <line class="cls-2" x1="591.6" y1="580.66" x2="549.35" y2="652.39"/>
  <line class="cls-2" x1="320.67" y1="532" x2="426.18" y2="487.67"/>
  <line class="cls-2" x1="250.48" y1="305.33" x2="288" y2="364"/>
  <line class="cls-2" x1="342.56" y1="368.29" x2="382.22" y2="447.56"/>
  <line class="cls-2" x1="452.17" y1="398.52" x2="528.06" y2="430.52"/>
  <line class="cls-2" x1="464" y1="300.3" x2="509.67" y2="348"/>
  <line class="cls-2" x1="397.72" y1="704.73" x2="404.79" y2="777.33"/>
  <line class="cls-2" x1="615.44" y1="664.45" x2="592.15" y2="745.01"/>
  <line class="cls-2" x1="225.24" y1="625.14" x2="216" y2="540"/>
  <line class="cls-2" x1="243.29" y1="484" x2="318.22" y2="452.89"/>
  <line class="cls-2" x1="280.75" y1="652.11" x2="334.29" y2="594.96"/>
  <path class="cls-1" d="m411.03,119.48c-24.17,0-32.03,6.02-47.93,17.58-33.55,24.39-32.61,61.34-74.82,96.94-50.08,42.23-81.68,25.46-115.56,62.22-28.36,30.79-27.63,74.51-28.44,113.78-1.14,54.73,14.08,57.63,12.44,108.44-2.08,64.59-27.31,79.51-19.56,119.11,9.51,48.58,58.95,77.52,80,90.67,39.63,24.75,49.55,13.68,80,35.56,54.72,39.31,37.89,85.98,78.22,106.67,47.51,24.37,82.95-34.19,170.67-23.11,59.45,7.51,68.06,37.55,106.67,28.44,42.01-9.9,41.18-47.68,103.11-101.33,60.35-52.29,80.99-32.5,103.28-68.6"/>
  <path class="cls-1" d="m434.67,45.74c-37.3,68.4-28.22,153.19,22.67,212,50.59,58.46,132.54,79.76,205.33,53.33-31.03,37.04-41.01,86.08-24,125.33,23.75,54.81,97.86,85.37,168,57.33-4.41,10.33-39.77,96.25-1.33,160,10.75,17.83,25.83,31.53,27.4,32.94,31.75,28.49,67.45,35.65,83.5,37.83"/>
  <path class="cls-1" d="m754.33,156.54c-7.02,2.26-11.29,8.18-10.67,13.33.84,6.94,10.34,10.69,17.33,9.33,7.24-1.4,13-8.5,13.33-17.33"/>
  <path class="cls-1" d="m892.7,162.54c2.75-4.87,11.22-5.99,14.44-2.89,4.58,4.4-.63,17.99-5.78,18.44-4.57.4-12.22-9.25-8.67-15.56Z"/>
  <path class="cls-1" d="m511.35,152.82c-.04,3.39,6.26,4.7,6.67,10,.29,3.81-2.79,5.45-2,7.11,1.9,4,24.44,4.07,27.78-7.33,1.89-6.46-2.93-14.71-9.78-17.78-10.14-4.54-22.62,3.24-22.67,8Z"/>
  <path class="cls-1" d="m847.31,266.37c-4,3.13-2.17,19.04,7.56,22.67,7.41,2.76,17.33-2.36,18-7.56.85-6.67-13.69-12.53-16.22-13.56-4.29-1.73-7.47-3.01-9.33-1.56Z"/>
  <path class="cls-1" d="m606.29,236.54c-3.01.65-7.4,24.13,5.11,31.33,11.62,6.69,28.97-5.74,28.22-10-.66-3.79-15.57-.3-26-10.89-5.31-5.39-5.85-10.77-7.33-10.44Z"/>
  <path class="cls-1" d="m846.75,569.87l1.56.89-1.56-.89c3.53-6.96,11.61-9.68,17.56-6.89,7.22,3.39,9.36,13.98,4.67,19.56-2.89,3.42-8.61,5.25-13.33,2.89-5.03-2.52-7.52-9.09-5.11-15.11"/>
  <path class="cls-1" d="m853.52,374.03c-6.88,9.71-6.25,19.65-1.78,22.89,3.27,2.37,8.67,1.18,12-1.11,5.88-4.05,8.29-13.57,3.78-18.44-3.83-4.13-10.7-2.8-11.33-2.67"/>
</svg>