<?xml version="1.0" encoding="utf-8"?>
<!-- Generator: Adobe Illustrator 27.2.0, SVG Export Plug-In . SVG Version: 6.00 Build 0)  -->
<svg version="1.1" id="Layer_1" xmlns="http://www.w3.org/2000/svg" xmlns:xlink="http://www.w3.org/1999/xlink" x="0px" y="0px"
	 viewBox="0 0 8192 8192" style="enable-background:new 0 0 8192 8192;" xml:space="preserve">
<style type="text/css">
	.st0{fill:#F7E5D9;}
</style>
<g>
	<path class="st0" d="M5916.9,3571.7c17.6-0.3,31.6-7.4,45.1-15.5c38.7-23.2,77.5-46,113.6-73.4c23.3-17.7,48.3-33.1,73.4-48.3
		c9.5-5.8,15.5-12.2,17.3-23.1c1.8-11.1,4.7-22.1,6.8-33.1c16.9-90.8,59.2-169.9,112.5-243.8c17.2-23.9,37.8-44.8,62.1-61.9
		c29.8-20.9,62.7-29.9,99.1-26.6c36.5,3.3,64.3,20.4,81.3,52.8c7.2,13.8,12.4,29.1,16.3,44.2c9.6,37.4,11.5,75.9,10.8,114.3
		c-0.6,35.5-10.3,69.4-28.1,100.1c-14.7,25.3-30.3,50.5-48.8,73c-23.6,28.7-50.2,54.9-76.2,81.6c-15.8,16.2-33,30.7-53.5,40.9
		c-21.7,10.8-34,28.9-37.1,53.2c-1.1,8.9-2.4,17.9-3.6,26.8c-4.1,29-8.2,58-12.2,87.1c-1.6,12-5.1,24.2,1.5,34.2
		c8.1,4.4,13.4,1.3,17.1-2.7c11.4-12.4,23.4-24.6,32.9-38.4c13.4-19.5,25-40.2,37-60.6c15.6-26.4,34.1-50.2,56.6-71.2
		c26.4-24.6,50.4-51.8,76.7-76.4c20.5-19.2,42.1-37.7,65.1-53.7c35.3-24.6,75.3-34.3,118.5-32.5c36.2,1.5,65.9,15.4,87.5,44.1
		c23.1,30.6,44.3,62.5,52.9,100.9c3.3,14.9,11,20.6,27,19.6c13.4-0.8,26.9-3.1,39.8-6.6c32.1-8.5,60-25.7,86.8-44.6
		c18.4-12.9,36.4-26.3,53.3-44.1c-4.1-10.9-7.8-21.4-11.9-31.6c-18.6-46.2-34-93.3-40.7-142.8c-5.5-40.5-6-81.1,4.3-121.1
		c15.5-59.8,55-94.5,115.7-103.5c77.6-11.4,125.7,48.2,132.4,101.3c4.6,36.3,1.9,72.1-9.6,107.1c-6,18.2-12.4,36.3-18.7,54.4
		c-3.7,10.6-7.6,21.2-11.4,31.9c-6.7,18.9-6.2,36.6,3,55.5c19.2,39.5,36.1,80.2,54.4,120.2c23.9,52.3,48,104.6,72.7,156.6
		c12.2,25.5,22.2,51.7,30.4,78.8c6.5,21.4,12.5,43.2,26.7,64.1c4.8-4.6,9.2-7.8,12.3-11.9c32.4-43.4,63.8-87.6,97.1-130.3
		c24.9-32,52.5-61.9,78.5-93.1c12.3-14.7,24-29.9,35.1-45.5c19.7-27.6,37.7-56.3,58.2-83.2c14.3-18.7,31-35.8,47.9-52.3
		c11.2-11,24.7-19.5,42.7-19.4c9.7,17,4,33.4-1.5,48.8c-4.5,12.6-11.3,24.8-19.3,35.5c-13.4,18.1-27.3,36.2-43.1,52.1
		c-40.8,41-75.8,86.6-107.8,134.5c-22.6,33.8-44.5,68-66.7,102c-34.6,53-71,104.6-114.5,150.8c-2.2,2.4-3.7,5.5-7,10.7
		c4.1,11.2,8.5,23.8,13.4,36.2c28.5,71.2,58.1,142,80.7,215.4c25,81.4,39.8,164,38,249.8c-1.4,70.3-27.7,129.3-71.4,182
		c-5.7,6.8-12.9,12.7-20.3,17.6c-33.8,22.8-69.8,41.6-108.6,54.4c-56.6,18.8-109.1,7.1-158.1-23.8c-20.5-12.9-34.9-31.9-43.7-54.7
		c-3.6-9.5-8.1-18-14.2-26.4c-25.9-35.8-39.8-74.8-32.5-120.5c9.2-57.9,14.1-116.5,23.9-174.3c14.4-84.9,39.6-166.7,77.8-244.2
		c11-22.2,20.8-45.1,31-67.7c9.7-21.6,9.3-42.9,1.8-65.7c-42.1-126.4-88.9-250.9-142.4-372.9c-3.5-8-8.2-15.5-13-24.4
		c-7.6,3.7-13.8,6.3-19.5,9.6c-52.8,30.6-106.9,58.2-165.7,75.9c-22.5,6.8-29.2,16.8-27.1,40.2c1.6,17.9,4.7,35.8,8,53.5
		c5.6,30,9.7,60.2,8.1,90.8c-3,58.6-4.5,117.4-18.5,174.8c-5.3,21.8-12.3,43.4-20.2,64.5c-8.3,22.4-21.3,42.4-39.5,58.3
		c-9.7,8.4-16.4,18.1-21,30c-15.5,39.9-41.6,72.2-74.2,99.3c-44.2,36.8-94.1,62.1-151,71.9c-16.5,2.8-33.6,3.5-50.4,3
		c-20.2-0.6-40.4-3.3-60.5-5.3c-21.4-2.2-38.3-13.3-52.2-28.7c-36.1-40-46.2-86.8-33.1-138.6c7-27.6,19.9-52.7,35.5-76.4
		c8.7-13.2,17.6-26.3,27.6-38.5c15.8-19.1,30.4-39,44.4-59.6c12-17.6,26.6-33.7,41.5-48.9c29.2-29.8,59.7-58.4,89.3-87.8
		c16-15.9,32-31.9,47-48.7c45.4-50.7,65.4-109.7,56.6-177.9c-4.5-34.8-10.5-69.2-22-102.4c-11.7-33.7-22.7-38.7-56.1-24.7
		c-15.4,6.5-30.6,15.1-43.4,25.7c-20.8,17.2-41.3,35.3-58.8,55.8c-27.8,32.6-54.3,66.5-78.7,101.6c-31.6,45.4-61.2,92.1-90.5,139
		c-34.4,55-55.7,115.7-72.4,178c-18.4,68.8-30.7,138.7-40.7,209.1c-19.8,139.6-38.9,279.3-59.1,418.9
		c-8.2,56.9-18.4,113.5-28.2,170.2c-1.9,11-5.6,21.8-9.2,32.5c-3.8,11.4-11.8,19.9-23.7,22c-17.7,3-35.6,5.6-53.5,6.2
		c-19.7,0.6-34.1-10.2-44.1-26.7c-9.1-14.9-12.5-31.4-12.1-48.6c1.3-58.7,1.3-117.5,4.9-176c4.1-67.5,10.3-135,17.9-202.3
		c8.5-75.1,18.3-150.1,29.8-224.8c24.6-160.6,51.1-320.8,75.8-481.4c6.9-44.6,10.4-89.6,15.3-134.5c0.7-6.5,0.1-13.2,0.1-19.5
		c-3.9-0.7-6.5-2.2-8-1.4c-23.9,12.4-49.7,21.1-71.7,37.4c-33.5,25-68.2,48.3-106.1,66.2c-25.4,12-37,31.8-38.9,58.6
		c-0.5,7.9-1,15.8-0.7,23.7c0.6,15.2-2.1,28.7-12.6,40.8c-10.1,11.7-11,27.1-11.9,41.7c-1.2,18.5-6.7,34.9-15,51.3
		c-7,13.9-11.4,29.4-14.5,44.8c-5.1,25.7-13.2,50.1-25.6,73.1c-32.4,60-77.3,108-136.1,142.7c-45.2,26.5-93.7,37.6-146.1,32.6
		c-57.2-5.4-99.7-33-127.9-82.7c-6.6-11.7-12.1-24-17.9-35.7c-8.5-1.7-9.6,4.7-12.3,9c-0.6,0.9-0.8,2.1-1.1,3.2
		c-16.8,53-43.8,101.3-68,150.9c-36.6,74.7-84.7,141.1-144.3,199.2c-30,29.3-62.8,55-100.3,74.2c-31.5,16.1-64.3,26.8-100.3,27
		c-30.9,0.2-58.1-9.6-80.3-30.3c-13.9-12.9-26.8-27.8-36.7-43.9c-28.2-46-44.2-96.2-45.2-150.6c-0.4-23.7-0.1-47.4,0.8-71.1
		c1.3-35,2.8-69.8,0-104.8c-1.5-18.8,0.9-38.5,5-57c19.2-86,30.5-173.3,43.1-260.3c12.5-86,23.5-172.1,36.1-258.1
		c8.4-57.1,26.2-111.9,42.5-167.1c24.5-83.3,49.1-166.6,73.1-250.1c5.9-20.6,10-41.7,14.7-62.6c2.7-12.1,4.3-24.4,1.2-35.3
		c-10.5-12.6-24.7-14-37.2-18.1c-125.4-41.1-251.6-79.2-379.6-111.4c-22.9-5.8-45.9-11.9-69.3-14.9c-39.5-5.1-76,5.2-108.9,27.9
		c-17,11.8-29.9,27.3-39.5,45.7c-4.1,7.9-8,16-11.8,23.7c-15.2,1.6-24.4-7.1-33.2-15.7c-7.5-7.5-9.5-17.5-10.5-27.9
		c-3.2-33,8.6-59.9,33.1-81.3c28.9-25.1,62.7-39.8,100.8-43.9c33.9-3.7,67.7-0.5,101.2,4.4c79.6,11.5,156.1,35.1,232.2,60.1
		c9.6,3.2,19.2,6.5,28.7,10.1c62.4,23.7,126.8,39.4,192.1,52.7c50.7,10.3,100.6,24.9,150.5,39c25.2,7.1,50.2,11.9,76.5,12
		c16.7,0,34.2,1.8,49.9,7.1c39.2,13.2,79.4,15.9,120.1,17.2c23.7,0.8,47.4,0.3,71,2c32.8,2.4,65.1,1.1,97.8-3.1
		c32.2-4.2,64.9-5.1,97.4-6.4c27.5-1.1,33.3,5.7,34.7,38.6c-23.9,9.9-47,23.8-72.9,31.2c-11.8,3.4-24.2,5.1-36.4,5.8
		c-65.3,3.8-130.6,7-196,10.6c-18.1,1-35.5,0.4-53.3-5.4c-44.2-14.3-90.3-19.2-136.4-23.2c-14.9-1.3-18.8,2.5-23.6,18.1
		c-49.6,164.3-88.8,331.1-117.1,500.4c-15.1,90.1-29.6,180.3-46.5,270.1c-12.9,68.7-29.1,136.8-43.5,205.2
		c-15.3,73-26.5,146.5-24.9,221.5c0.7,33.8-1.1,67.7,0.2,101.5c0.6,15.5,4.3,31.5,9.6,46.1c13.1,36,37.8,45.1,72.3,26.7
		c13.8-7.3,27.1-16.7,38.1-27.7c18.4-18.1,36.1-37.3,52-57.8c48-61.7,88.6-128.3,120-199.8c35.9-81.5,68.4-164.5,102.7-246.8
		c5.8-13.9,7.7-27.9,7.6-42.9c-0.1-23.7,3.7-47.6,1.4-70.9c-5.6-57.6,9.2-111.9,25.2-165.7c18.1-60.9,46.3-117.5,81.5-170.4
		c23.2-35,49.8-67.1,82.8-93.3c31.5-25,66.2-43.4,107-46.4c15.6-1.1,31.6-0.8,47,1.5c54.4,8.2,100.5,33.1,137.2,73.9
		c30.9,34.3,44.5,74.5,40,121.5c-2.3,24.5,0.6,49.5,1.6,74.2C5912.9,3563.3,5915.4,3567.3,5916.9,3571.7z M5562.8,3958.7
		c-4,20.5,0.9,42.6,6.5,64.4c2.5,9.6,6.6,19.2,11.9,27.6c5.8,9.3,15.6,13.8,26.4,9.3c44.1-18.3,85.6-40.6,115-80
		c20.3-27.2,36.1-57.2,49.4-88.3c19.5-45.6,38.2-91.4,56.4-137.5c5.3-13.5,8.5-28.1,11-42.4c4.3-24.7-3.5-33.7-28-34.1
		c-3.4-0.1-6.8,0.2-10.1,0.5c-30.3,2.2-60.6,4.9-91,6.3c-17.9,0.8-36,0.3-53.8-1.5c-19-1.9-37.7-6.6-56.7-8.7
		c-29.8-3.3-38,3.3-44,32.7c-0.7,3.3-0.8,6.7-1.4,10c-6.1,34.8-4.4,69.6-1.8,104.5C5555.7,3866.5,5559.2,3911.4,5562.8,3958.7z
		 M7288.3,4104.3c-13.7,10.7-16.4,21.8-19.8,32.4c-12.6,38.6-25.4,77.1-37.5,115.9c-15.4,49.6-27.8,99.9-34,151.7
		c-9,75.9,9.8,145.4,47.2,210.7c5.5,9.7,13,18.7,21.1,26.2s17.7,14,27.6,19c20.2,10.1,39.2,7.2,56.1-8.5
		c16-14.8,27.6-32.7,37.3-51.9c5.1-10,8.6-21.3,15.5-29.9c8.8-11,9.7-21.1,6.8-34.4c-13.2-60.6-24.7-121.6-37.8-182.2
		c-16.1-73.9-35.6-146.9-66.4-216.3C7299.9,4126.9,7294.6,4117.1,7288.3,4104.3z M6670.5,3808.7c-14.4-1.5-24.4,6.4-34.8,12.6
		c-34.3,20.6-61.6,48.8-85.8,80.3c-46.4,60.3-80.3,127.5-106,198.8c-11.1,30.9-13.7,63.7-16,96.3c-1.4,19.2,8,32.5,24.2,40.9
		c20.5,10.6,41.1,10.4,61-2.1c17.4-10.9,31.5-25.4,43.8-41.6c21.3-27.9,37.3-58.8,50.9-91.1c34.2-81.5,54.6-166.6,64.8-254.2
		C6674.1,3835.5,6676.2,3822.1,6670.5,3808.7z M6317.1,3512.1c7-2.3,13.7-3.4,19.4-6.5c22-12.1,39.6-29.6,55.2-49.1
		c39.9-49.8,68.7-105.4,88.5-166c15.7-48.1,6.2-93.3-13.7-137.6c-2.3-5.1-5.5-9.8-9.1-14.2c-15.8-19.4-37.1-22.3-56.1-5.7
		c-10,8.7-19.2,19.6-25,31.4c-10.5,21.1-19.8,43-26.7,65.5c-22,71.3-31.6,145.1-42.1,218.6
		C6304.5,3469.6,6305.9,3491.1,6317.1,3512.1z M5729,3635.5c27-1.9,56.2-4.2,84.2-13.6c19-6.4,23.1-13.4,21.1-32.9
		c-0.7-6.7-2.2-13.3-3.8-19.9c-6-25.2-12.3-50.3-18.1-75.6c-1.7-7.6-4.6-16-3-23.2c6.6-29.8-8.7-52-23.6-74.4
		c-8.7-13-21.7-15.7-35.8-10.7c-8.4,2.9-17.3,6.4-24,12c-13.9,11.4-27.8,23.2-39.3,36.8c-30.2,35.4-51.9,76.2-71.1,118.4
		c-7.6,16.6-9.6,30.2,11.6,47.5C5655.9,3623.2,5688.9,3636.6,5729,3635.5z M7178.7,3361.8c28.6-40.3,44.5-79,43.2-123.5
		c-0.7-22.9-7.9-44.4-20.8-63.4c-14.6-21.6-39.9-22.7-56.6-2.6c-4.2,5.1-8,11.2-10,17.4c-8.5,26.3-11.6,52.6,0.5,79
		c11.2,24.6,21.6,49.5,32.6,74.2C7169.7,3348,7173,3352.5,7178.7,3361.8z"/>
	<path class="st0" d="M2732.6,3651.6c-6.6,1.8-11.3,2.2-15,4.3c-38.4,21.5-76.9,42.7-114.6,65.3c-15.4,9.2-29.3,21-43,32.6
		c-10.6,9-16.1,20.9-17.9,35.2c-10,78.3-21.2,156.5-30.7,234.9c-3,24.6-3.3,49.6-2.6,74.4c2.4,87.7-11.6,173.1-33.9,257.5
		c-14.7,55.6-28.7,111.4-42.8,167.1c-10.1,40.2-28.8,75.9-56.3,106.8c-66.7,75-150.4,119.8-250.3,126.3
		c-146.5,9.5-254.3-86.6-265.1-229.8c-6.6-87.1,15-168.1,55.1-244.3c32.3-61.4,75.9-114.9,124.8-163.7
		c32.7-32.6,66.8-64.1,101.4-94.7c54-47.9,108.6-95.1,163.9-141.6c26.5-22.3,41.9-48.9,46.1-83.4c6.4-52.6,14.8-104.9,21.9-157.5
		c1.5-11.1,1.2-22.5,0.7-33.7c-0.2-3.8-3.7-7.4-5.7-11.2c-13.2,5-17.1,16.4-23.5,25.2c-28.7,39.2-58.3,77.7-93.6,111.2
		c-17.1,16.3-35.2,31.7-54,46.1c-61.3,47.1-129.9,60.1-204.6,40.8c-15.3-3.9-30.2-8.9-45.3-13.6c-7.4-2.3-14.7-4.9-24-8
		c-5.6,10.6-11.2,20.2-15.8,30.2c-27.8,61.7-54.5,123.9-83.1,185.2c-21,44.9-43.1,89.4-67,132.9c-27.8,50.7-63.5,95.9-105.3,136
		c-7.3,7-15,13.7-22.5,20.5c-25.8,23-55.6,22.8-86,13.1c-18.4-5.9-28.8-20.8-34.7-38.9c-3.7-11.2-3.2-25-19-28.9
		c-2.8-0.7-5.4-7-6-11.1c-1.3-8.9-1.5-18-1.9-27c-4.2-85.4,8.8-168.8,30.7-251c12.8-47.9,27.7-95.3,39.5-143.5
		c10.6-42.8,22.2-85,40.4-125.4c6.9-15.3,11.5-31.8,15.5-48.2c3.2-13.2,3.2-26.9-3.6-39.6c-4-7.5-12.2-11.4-19.9-7.8
		c-7,3.3-14.1,7.3-19.8,12.5c-10.7,10-21,20.5-30.4,31.7c-29.6,35.7-55.3,74.1-77.3,115c-5.3,9.9-11.1,20-14.1,30.7
		c-8.8,30.3-26.9,54.3-48.6,76.2c-10.3,10.4-21.2,20.4-31.1,31.1c-7.6,8.3-15.7,16.7-20.9,26.4c-26.2,49.5-69.7,72.3-122.6,79.6
		c-28,3.9-56.1,3.6-83.9-4c-35-9.5-59.7-30.5-75-63.1c-9.7-20.6-15.3-42.5-18.1-64.9c-10.4-83.5-9-166.6,9.7-249.1
		c2.9-13,5-26.2,7.4-38.7c-3.8-1.7-6.2-3.9-7.5-3.3c-49.5,21.5-145.6,76.9-167.4,96.6c4.4,27,14.1,53.4,21.6,80.4
		c11.5,41.2,23.6,82.4,33.9,123.9c8.7,35.1,12.2,71.1,11.9,107.4c-0.4,45.1,0.5,90.3-0.2,135.5c-2.1,127.3-33,247.7-88.2,362
		c-45.4,94-124.6,135.7-224.8,143.6c-30.4,2.4-60.8,0.2-90.7-7.4c-58-14.9-105-46.1-140.2-94.4c-32.6-44.8-51-95.4-56.8-150.2
		c-8.8-82.9,6.2-161.8,43.4-236.4c20.2-40.6,45.9-77.6,73.5-113.4c39.3-50.9,78.4-101.9,116.7-153.6
		c34.3-46.3,68.1-92.8,109.7-133.1c10.4-10.1,19.1-22.2,27.9-33.9c7.9-10.6,9.5-22.2,4.3-35.1c-9.7-24.1-17.9-48.7-27.6-72.7
		c-31.4-77.4-63.8-154.3-94.6-231.9c-25.4-64-46.9-129.4-60.4-197.1c-12.3-61.4-15.5-123.1-3.1-184.9c6-30.1,15.8-58.8,32.3-84.9
		c29.4-46.4,71.5-70.7,126.4-72.4c32.9-1,65.3,2,96.9,12c64.1,20.2,105.2,62.7,125.3,126.7c12,38.2,10.9,75.3-3,112.7
		c-9.1,24.5-21.1,47.4-36.3,68.6c-31.3,43.7-70.2,79.3-117,106c-9.7,5.5-19.5,11-29.3,16.6c-3.7,13.2-1.4,25.4,2.4,37.2
		c8.4,25.7,16.5,51.6,26.7,76.6c11.9,29.2,25.2,58,39.2,86.3c16,32.4,32.8,64.1,40.3,100c3.1,14.9,8.6,30.3,21.4,42.5
		c4.5-2.2,8.7-3.5,12.1-6c51.8-38.4,108.4-69,164.2-101c54.7-31.5,39.9-14.2,57.8-75.1c5.4-18.4,11.2-36.9,14.2-55.7
		c7-43.2,28.9-80.3,46.2-119.4c10.7-24.2,30.4-31.5,55.1-30.2c21.4,1.2,35.4,13.6,45.9,30.5c17.6,28.4,27.6,59.9,28.6,92.9
		c1.2,37.1,0.4,74.5-3.3,111.5c-5.8,58.5-19.5,115.6-35.1,172.2c-12.6,45.8-22.8,92.1-24.4,139.7c-0.8,25.9,0,51.9,2.2,77.7
		c1.1,13.2,5.5,26.6,11.2,38.7c10.1,21.4,27.5,25.7,47.3,12c10.1-7,19.7-15.4,27.5-24.9c17.3-20.8,34.9-41.6,49.7-64.2
		c37.1-56.6,73.2-113.9,108.6-171.6c23.6-38.5,47.6-76.3,79.3-109.3c16.9-17.6,28.6-40.3,42.6-60.8c11.4-16.7,21.7-34.4,34.4-50.1
		c18.1-22.5,42.6-32,71.8-30.7c22.8,1,38.3,11.8,48,31.7c10.2,20.9,11.5,43.4,10.5,66.1c-1.9,45.3-9.4,89.7-20.3,133.6
		c-10.8,43.8-24.1,87.1-32.1,131.4c-11.2,62.4-28.8,122.7-48.1,182.9c-24.4,76-30.3,154.7-26.6,234.2c0.2,5.4,2.5,10.6,3.5,14.9
		c10.1,5.1,17.6,1.5,22.9-4.3c9.1-9.9,18.4-20.2,24.7-31.9c12.7-23.8,24.5-48.3,34.6-73.3c18.1-45,35-90.4,51.7-136
		c18.2-49.8,38-99,63.2-145.8c6.9-12.9,12.6-26.4,19.3-40.5c-4-6.9-7.6-13.8-11.8-20.3c-23-35.7-30.1-74.6-24.8-116.6
		c5.6-44.1,17.9-86,36.5-126.2c41-88.5,99.5-163.6,174.3-225.9c26.1-21.7,54.3-40.3,85.2-54.7c36.9-17.1,74.9-23.8,115.1-13.7
		c27.4,6.9,54.3,14.8,79.5,28.2c20.1,10.7,33.7,25.8,36.7,49.4c2.1,16.7,4.9,33.4,7.4,49.6c-28.4,13.1-41.3,16.2-65.5,7.2
		c-26.6-9.8-48.4-3.7-69.5,12.3c-5.4,4.1-11,8-16.1,12.3c-79.5,67.3-142.5,147.3-186.7,241.9c-15.4,32.9-26.1,67.3-29.7,103.6
		c-1,10-1.1,20.4,0.6,30.2c5.1,29.1,21.9,40.8,50.6,35c10.9-2.2,21.9-5.7,31.9-10.7c16.1-8,32-16.8,46.9-27
		c74.2-50.8,139-111.7,192.3-184.1c18.6-25.2,33.2-53.6,48.2-81.3c15-27.8,27.1-57.1,42.6-84.6c11.5-20.5,25.6-39.8,39.9-58.5
		c10.4-13.5,24.4-23.2,40.5-29.6c20.5-8.1,39.7-6.3,58.1,5.5c22.5,14.3,39.7,33.6,49.6,58.3c3.6,9.1,5.3,19.9,4.5,29.6
		c-2.5,30.3-6.1,60.6-10.2,90.7c-4.5,33.5-10.7,66.9-14.9,100.4c-2.2,17.9-2.6,36-2.4,54.1c0.1,8.8,2.3,17.9,5.5,26.1
		c4,10.2,12.8,16.4,24,15.3c11-1.1,22.7-2.6,32.6-7.3c20.3-9.6,39.9-20.9,59.3-32.3c11.6-6.8,22.3-15.3,33.6-22.7
		c24-15.8,42.3-34.7,52.5-63.5c13.3-37.5,37.1-69.1,67.8-95.6c24.7-21.4,48.1-44.4,74.8-63.3c43-30.4,89.8-52.1,143-56.3
		c15.6-1.2,31.7-0.2,47.1,2.3c39.2,6.3,59.8,32.9,70.6,69c0.6,2,0.4,4.5-0.2,6.7c-0.5,2.1-1.8,4-2.8,6c-2,0.5-4.5,1.9-6,1.3
		c-42.8-19.9-82.2-7.8-118.4,15.6c-19.6,12.7-37.1,29.6-52.8,47.1c-37.7,42.2-68.5,89.5-98.4,137.5c-17.1,27.5-24.9,58.3-26.2,90.1
		c-1.6,41.7-0.8,83.5-0.8,125.3c0,26.1,14.5,41.6,37.7,50.5c33.3,12.8,59,6.3,81-21.3c18.3-22.9,35.8-46.5,54.2-69.3
		c37.6-46.8,69.5-97.1,97.7-150.1c33.9-63.8,68.9-126.9,105-189.4c20.8-36.1,44.3-70.8,67.3-105.6c5.4-8.2,12.9-15.6,20.9-21.5
		c10.7-7.9,23-10.5,33.7,0.5c7,7.1,15.7,8.1,24.7,9.3c27.2,3.7,42.3,20.5,46.1,46.7c2.5,16.6,4.4,34,2.4,50.4
		c-8.3,67.4-9.4,135-7.5,202.8c1,33.9-1.2,67.6-7.9,101.1c-8.6,43.3-11.1,87.2-13.5,131.2c-1.5,28.1-4.1,56.3-7.7,84.2
		c-4.1,31.7-15.7,61-33,88c-13.9,21.8-27.7,43.8-41.3,65.8c-5.5,8.9-14,12.6-23.1,9.6c-11.6-3.9-23.9-8.4-32.9-16.2
		c-13.6-11.6-25.2-25.6-36.6-39.5c-14.3-17.4-17.6-36.8-14.2-60c10.7-72.5,18.3-145.5,27.8-218.2c5.1-39.1,12.1-78,17.1-117.2
		c2-15.5,1.7-31.5,1-47.2c-0.2-4.6-4.7-10.5-8.9-13c-6.7-4-13.4-0.2-17.6,5.6c-6.5,9.1-12.9,18.5-18,28.5
		c-7.1,14.1-13,28.8-19.4,43.2c-32.4,73.1-80.4,135.7-133.2,194.8c-29.1,32.6-64.3,56.8-107.4,67.3c-35.3,8.6-70.7,12.9-107.2,6.3
		c-45.5-8.1-78.5-32.4-100.3-72.6c-17.5-32.4-25.3-67.6-27-104c-1.5-31.6-1.8-63.2,4.3-94.5
		C2733.4,3664.3,2732.6,3658.8,2732.6,3651.6z M2324.5,3935.6c-3,1.5-7.2,3.1-10.8,5.5c-53,35.5-98,78.9-136.8,129.8
		c-62.9,82.6-129.1,162.6-201.1,237.6c-21.2,22.1-34.9,47.3-40.7,76.4c-10.4,52.4-12.7,105.2-2.5,158
		c10.2,53.1,40.5,92.2,85.8,120.1c19.6,12.1,41.2,17.4,64.6,16.4c42.4-1.9,78.9-17.2,109.6-46.3c19.9-18.8,34.9-41.3,47.3-65.6
		c15-29.2,25.8-60.1,34.2-91.8c18.9-71,31.9-143.2,40.4-216c7.6-65,13-130.2,17.8-195.4c2.6-36,1.9-72.2,2.5-108.3
		C2335,3948.4,2335.1,3940.1,2324.5,3935.6z M760.8,3791c-10.9,8.6-17.6,12.5-22.7,18c-60.8,65.2-119.1,132.5-169.3,206.4
		c-34.3,50.5-64.4,103.3-87.7,159.8c-29.6,71.8-45.3,146.2-42.5,224.2c1.1,30.7,5.9,60.6,19.4,88.5c15.1,31.2,39.2,52.1,72.8,60.9
		c64.1,16.9,128.7-8.6,163.7-64.7c8.9-14.3,17.4-29.2,23.6-44.8c12-30.3,24.2-60.8,32.9-92.2c41.1-147.6,46.6-297.8,30.8-449.4
		c-2.7-25.8-6.4-51.5-10.5-77C769.8,3812.3,765.5,3804.3,760.8,3791z M728.7,3216.9c10.5-9.4,21.5-18.5,31.6-28.4
		c31.7-30.7,59.2-64.8,79.1-104.5c16.1-32,23.3-65.6,19.4-101.3c-2.1-19.2-6.9-37.5-17.1-54.2c-23.6-38.6-92.1-49.3-118.9,5.6
		c-5.9,12-10.6,25.1-12.9,38.2c-6,35.6-9.2,71.3-3.9,107.5c6.4,43.4,11.4,86.9,17.2,130.4C723.4,3211.9,725.7,3213.4,728.7,3216.9z"
		/>
	<path class="st0" d="M4368.8,3405.9c29.2,11,37.4,22,32.6,47.4c-3.8,19.9-8.3,40-15.7,58.7c-51.3,130.5-84.7,266.4-123.5,400.6
		c-21.6,74.7-42.9,149.6-67.9,223.2c-19.9,58.6-45.5,115.4-68.1,173.1c-21,53.5-41.4,107.3-61.9,161c-21,54.8-43,109.1-71.7,160.5
		c-18.2,32.6-38.7,63.6-65.2,90.3c-18.5,18.7-39.2,34.3-64.3,42.7c-42.5,14.3-82.4,6.4-119.7-16.6c-25.5-15.7-44.7-37.8-60.1-63.2
		c-30.3-50.2-46.8-104.8-49.5-163.4c-5.1-111.4,6.2-221.1,39.3-327.7c27.7-89.4,57.8-178,87.4-266.8c27-81.4,53.4-163,67-247.9
		c5.6-34.8,13.7-68.4,28.4-100.5c3.7-8.1,6.3-17,8-25.8c5.1-25.3-2.7-42-26-52.4c-13.2-5.9-27.7-9.4-41.8-13
		c-38.2-9.8-76.7-18.3-114.8-28.7c-40.3-10.9-79.2-26-115.9-46.3c-26.8-14.9-51.6-32.4-72.2-55.3c-25.7-28.7-41.2-61.6-41.8-100.9
		c-0.9-58.8,36.6-101.2,95.2-106.9c55.5-5.3,99.4,15,130.7,61.2c25.2,37.2,36.8,79.5,43.9,123.3c1.8,11.1,3.7,22.3,4.8,33.5
		c1.7,17.4,11.3,29.6,26,37.2c12.9,6.7,26.6,12.6,40.6,16.3c28.3,7.6,57.1,13.1,85.5,20.2c24,6,48.3,11.6,71.6,20
		c69.6,25.1,89.2,62.3,72.3,133.6c-2.1,8.8-4.3,17.5-7.2,26.1c-40.2,117.5-71.5,237.5-102.8,357.5c-19.1,73.2-40.1,145.6-69.8,215.4
		c-20.1,47.1-29.8,96.5-33.4,147.7c-2.8,39.3-10.9,78.1-16.6,117.2c-6,41.7-7.7,83.4,4.2,124.2c5,17.1,11.3,34.6,20.6,49.7
		c19.2,31.2,52.4,32.2,75.1,2.9c8.2-10.5,14.5-22.9,19.8-35.2c54.4-125.1,108.4-250.4,162.6-375.7c36.8-85.1,62.9-173.8,87.8-262.9
		c23.6-84.7,46.1-169.7,74.4-253.1c13.8-40.5,23.4-82.4,35.3-123.6c11.9-41.3,25.9-81.8,48.8-118.6c9.5-15.3,20.7-29.6,31.8-43.8
		C4357.1,3415.4,4363.6,3410.7,4368.8,3405.9z M3665.9,3357.4c0.5-4.5,1.9-9,1.4-13.2c-5-38.4-17.2-74.3-38-107.2
		c-3-4.7-6.5-9.2-10.1-13.5c-7.8-9.3-17.4-14-29.8-10.8c-10.7,2.8-16.2,10.7-17.9,25.6c-3,25.9,3.1,49,20.4,68.9
		c18,20.6,39.5,36.6,63.2,49.9C3657.6,3358.6,3661.5,3357.4,3665.9,3357.4z"/>
</g>
</svg>
